<?xml version="1.0" encoding="utf-8"?>
<!-- Generator: Adobe Illustrator 27.2.0, SVG Export Plug-In . SVG Version: 6.00 Build 0)  -->
<svg version="1.1" id="Ebene_2_00000005980616670257790000000007179032791203907225_"
	 xmlns="http://www.w3.org/2000/svg" xmlns:xlink="http://www.w3.org/1999/xlink" x="0px" y="0px" viewBox="0 0 335.8 65"
	 style="enable-background:new 0 0 335.8 65;" xml:space="preserve">
<style type="text/css">
	.st0{fill:#FFFFFF;}
	.st1{fill:#FFFFFF;}
	.st2{fill:#FFFFFF;}
</style>
<g id="Ebene_1-2">
	<g>
		<path class="st0" d="M9.1,38.2v8.7H0v-32h15.6c8.6,0,12.9,5.4,12.9,11.7s-4.3,11.6-12.9,11.7H9.1L9.1,38.2z M9.1,30.6h6.5
			c2.5,0,3.8-1.8,3.8-3.9s-1.3-4-3.8-4H9.1V30.6z"/>
		<polygon class="st0" points="62.6,46.9 37,46.9 37,14.8 62,14.8 62,22.4 46,22.4 46,27 61.1,27 61.1,34.4 46,34.4 46,39.2 
			62.6,39.2 		"/>
		<polygon class="st0" points="80,22.3 70.7,22.3 70.7,14.8 98.4,14.8 98.4,22.3 89,22.3 89,46.9 80,46.9 		"/>
		<path class="st0" d="M126.6,23.7c-2.2-1.6-4.7-2.2-7.5-2.2c-2.2,0-4.3,0.7-4.3,2.4c0,2.2,2.2,2.5,5.3,2.8c6.4,0.7,13,3.2,13,10.6
			s-6.9,10.4-14,10.4c-5.8,0-9.9-1-14.3-5.6l5-5.7c3.2,3.1,6.7,3.6,9.4,3.6c3,0,5-1,5-2.8c0-1.6-1.8-2.6-5.3-2.9
			c-7-0.6-13-2.4-13-10.4c0-6.8,6.6-9.7,13.4-9.7c4.8,0,8.6,1.1,12,3.8L126.6,23.7L126.6,23.7z"/>
	</g>
	<g>
		<path class="st1" d="M134.7,65H71.6v-4.6h63.1c1.3,0,2.3,1,2.3,2.3S136,65,134.7,65"/>
		<path class="st1" d="M211.4,60.4h63.1V65h-63.1c-1.3,0-2.3-1-2.3-2.3S210.1,60.4,211.4,60.4"/>
		<path class="st0" d="M229.5,15c11.3,0,16.7,7,16.7,15.8S241,47,229.5,47h-13.7V15H229.5z M224.8,39.4h4.8c5.8,0,7.8-4.3,7.8-8.7
			s-2.2-8.1-7.8-8.1h-4.8V39.4z"/>
		<polygon class="st0" points="280.6,47 255,47 255,15 280,15 280,22.6 263.9,22.6 263.9,27.1 279.1,27.1 279.1,34.5 263.9,34.5 
			263.9,39.4 280.6,39.4 		"/>
		<polygon class="st0" points="301.6,15 301.6,39.3 317,39.3 317,47 292.6,47 292.6,15 		"/>
		<rect x="326.8" y="15" class="st0" width="9" height="32"/>
		<path class="st2" d="M173.1,3.6c15.1,0,27.4,12.3,27.4,27.4s-12.3,27.4-27.4,27.4S145.7,46.1,145.7,31S158,3.6,173.1,3.6 M173.1,0
			c-17,0-31,13.8-31,31s14,31,31,31s31-14,31-31S190.1,0,173.1,0"/>
		<path class="st2" d="M177.6,28.7c-2.2,0.4-2.6,2.5-4.1,2.8c-1.6,0.3-3-1.5-5.1-1.1c-3.2,0.6-4.8,3.6-4.2,6.9
			c0.2,0.9,0.5,1.7,0.9,2.5c0,0,0.4,0.7,0.6,1.1c3.3,4.8,9,6.5,9,6.5c0.9,0.3,2.1,0,2.9-0.5c0,0,4.8-3.6,6.2-9.2
			c0,0,0.2-0.8,0.2-1.2c0.1-0.9,0.1-1.7,0-2.6C183.3,30.5,180.7,28.2,177.6,28.7"/>
		<path class="st2" d="M179.4,19.7c0,2.8-1.1,5.1-3.5,5.1c-2.4,0-3.5-2.3-3.5-5.1s1.9-5.1,3.5-5.1S179.4,16.9,179.4,19.7"/>
		<path class="st2" d="M162.9,22.3c1,2.8,2.9,4.7,5.3,3.9c2.4-0.9,2.6-3.5,1.6-6.4c-1-2.8-3.7-4.5-5.3-3.9
			C162.9,16.5,161.9,19.5,162.9,22.3"/>
		<path class="st2" d="M187.6,25.1c-1.1,2.3-2.9,3.8-4.8,2.9c-1.9-0.9-1.9-3.2-0.9-5.5s3.5-3.5,4.8-2.9
			C188,20.2,188.7,22.8,187.6,25.1"/>
		<path class="st2" d="M157.4,30.5c1.8,1.8,3.9,2.5,5.4,1.1c1.5-1.5,0.7-3.6-1.1-5.4s-4.4-2-5.4-1S155.6,28.7,157.4,30.5"/>
	</g>
</g>
</svg>
