<?xml version="1.0" encoding="UTF-8"?>
<svg xmlns="http://www.w3.org/2000/svg" xmlns:xlink="http://www.w3.org/1999/xlink" width="434.985pt" height="458.391pt" viewBox="0 0 434.985 458.391">
<defs>
<clipPath id="clip-0">
<path clip-rule="nonzero" d="M 0.28125 0 L 434.6875 0 L 434.6875 457.78125 L 0.28125 457.78125 Z M 0.28125 0 "/>
</clipPath>
<clipPath id="clip-1">
<path clip-rule="nonzero" d="M 255 154 L 288 154 L 288 178 L 255 178 Z M 255 154 "/>
</clipPath>
<clipPath id="clip-2">
<path clip-rule="nonzero" d="M 255.335938 157.210938 C 255.335938 168.648438 264.664062 177.917969 276.171875 177.917969 C 287.679688 177.917969 297.007812 168.648438 297.007812 157.210938 C 297.007812 145.773438 287.679688 136.5 276.171875 136.5 C 264.664062 136.5 255.335938 145.773438 255.335938 157.210938 "/>
</clipPath>
<clipPath id="clip-3">
<path clip-rule="nonzero" d="M 338 150 L 358 150 L 358 167 L 338 167 Z M 338 150 "/>
</clipPath>
<clipPath id="clip-4">
<path clip-rule="nonzero" d="M 338.695312 150.832031 C 338.695312 159.375 344.453125 166.296875 351.558594 166.296875 C 358.664062 166.296875 364.421875 159.375 364.421875 150.832031 C 364.421875 142.289062 358.664062 135.367188 351.558594 135.367188 C 344.453125 135.367188 338.695312 142.289062 338.695312 150.832031 "/>
</clipPath>
</defs>

<path fill-rule="nonzero" fill="rgb(80.392456%, 44.7052%, 61.177063%)" fill-opacity="1" d="M 301.789062 84.484375 C 303.765625 79.542969 308.875 70.808594 322.878906 76.246094 C 336.886719 81.683594 372.480469 111.675781 392.09375 132.769531 C 411.703125 153.859375 400.003906 171 386.160156 186.160156 C 372.316406 201.320312 324.859375 173.800781 324.859375 173.800781 Z M 301.789062 84.484375 "/>
<path fill-rule="nonzero" fill="rgb(94.509888%, 60.392761%, 75.686646%)" fill-opacity="1" d="M 244.933594 85.636719 C 239.664062 75.75 225.820312 72.785156 206.703125 77.070312 C 187.589844 81.355469 138.480469 108.378906 127.933594 115.960938 C 117.390625 123.539062 108.820312 143.972656 119.367188 175.285156 C 126.289062 195.71875 137.164062 212.195312 137.164062 212.195312 C 118.046875 238.234375 108.488281 257.019531 102.226562 266.578125 C 95.964844 276.132812 63.996094 335.128906 54.769531 386.542969 L 270.972656 386.542969 L 286.460938 331.175781 C 295.359375 328.207031 310.191406 317.992188 324.695312 317 C 338.207031 328.539062 380.722656 316.34375 389.289062 269.542969 C 393.90625 244.824219 393.027344 228.125 385.777344 197.476562 C 385.148438 195.460938 394.023438 186.011719 392.585938 183.6875 C 378.414062 175.203125 367.867188 172.648438 367.867188 172.648438 C 373.472656 153.53125 370.175781 144.632812 367.867188 138.042969 C 365.5625 131.449219 355.671875 126.175781 353.695312 122.550781 C 351.71875 118.925781 353.035156 111.675781 342.492188 101.789062 C 331.945312 91.898438 320.410156 80.367188 295.03125 83.992188 C 273.609375 72.125 244.933594 85.636719 244.933594 85.636719 "/>
<path fill-rule="nonzero" fill="rgb(8.627319%, 20.783997%, 34.901428%)" fill-opacity="1" d="M 137.164062 212.195312 C 149.359375 232.628906 164.1875 261.304688 192.863281 255.371094 C 206.046875 252.40625 208.679688 229.335938 208.679688 216.808594 C 208.679688 204.285156 204.398438 144.632812 208.351562 125.515625 C 210.191406 108.0625 219.707031 94.589844 240.609375 90.65625 C 241.582031 90.472656 242.054688 91.808594 241.1875 92.285156 C 225.894531 100.636719 214.472656 108.917969 212.96875 125.1875 C 210.660156 147.269531 212.882812 194.859375 214.285156 212.195312 C 215.6875 229.535156 212.308594 255.371094 195.167969 259.984375 C 173.746094 265.589844 148.203125 254.875 133.546875 217.21875 Z M 137.164062 212.195312 "/>
<path fill-rule="nonzero" fill="rgb(8.627319%, 20.783997%, 34.901428%)" fill-opacity="1" d="M 253.503906 122.222656 C 265.699219 122.222656 273.609375 115.628906 283.167969 115.960938 C 292.722656 116.289062 299.316406 120.242188 299.316406 120.242188 C 299.316406 120.242188 295.359375 111.34375 282.835938 111.015625 C 270.3125 110.6875 253.503906 122.222656 253.503906 122.222656 "/>
<path fill-rule="nonzero" fill="rgb(8.627319%, 20.783997%, 34.901428%)" fill-opacity="1" d="M 301.621094 94.867188 C 303.269531 100.796875 305.6875 108.820312 307.996094 110.796875 C 310.300781 112.773438 318.101562 117.9375 322.714844 128.484375 C 321.726562 113.652344 314.148438 110.027344 310.851562 106.402344 C 307.554688 102.777344 304.148438 96.527344 301.621094 94.867188 "/>
<path fill-rule="nonzero" fill="rgb(8.627319%, 20.783997%, 34.901428%)" fill-opacity="1" d="M 331.175781 116.726562 C 335.789062 116.949219 340.511719 116.070312 346.117188 116.179688 C 345.019531 111.015625 332.492188 111.234375 331.175781 116.726562 "/>
<path fill-rule="nonzero" fill="rgb(8.627319%, 20.783997%, 34.901428%)" fill-opacity="1" d="M 255.296875 220.480469 C 256.070312 220.496094 256.214844 221.589844 255.480469 221.835938 C 248.195312 224.25 243.066406 227.382812 238.839844 228.839844 C 234.058594 230.488281 226.644531 233.617188 224.832031 239.878906 C 223.40625 244.800781 225.644531 258.269531 226.671875 263.8125 C 226.742188 264.199219 226.195312 264.367188 226.03125 264.007812 C 221.371094 253.839844 220.410156 241.621094 223.019531 236.253906 C 225.820312 230.488281 233.566406 227.519531 238.179688 226.203125 C 242.167969 225.0625 248.617188 220.355469 255.296875 220.480469 "/>
<path fill-rule="nonzero" fill="rgb(8.627319%, 20.783997%, 34.901428%)" fill-opacity="1" d="M 226.148438 223.070312 C 229.609375 221.917969 240.652344 216.644531 243.945312 215.164062 C 236.863281 212.523438 226.808594 220.929688 226.148438 223.070312 "/>
<path fill-rule="nonzero" fill="rgb(8.627319%, 20.783997%, 34.901428%)" fill-opacity="1" d="M 256.140625 272.179688 C 256.140625 281.738281 256.800781 307.28125 274.101562 312.882812 C 291.40625 318.484375 292.394531 306.125 328.320312 303.65625 C 364.242188 301.183594 368.363281 296.238281 367.867188 280.253906 C 367.042969 264.105469 361.769531 248.449219 361.769531 248.449219 C 361.769531 248.449219 341.996094 281.570312 315.960938 288.660156 C 286.132812 299.203125 256.140625 272.179688 256.140625 272.179688 "/>
<path fill-rule="nonzero" fill="rgb(8.627319%, 20.783997%, 34.901428%)" fill-opacity="1" d="M 333.757812 225.542969 C 333.757812 226.636719 332.871094 227.523438 331.78125 227.523438 C 330.6875 227.523438 329.800781 226.636719 329.800781 225.542969 C 329.800781 224.453125 330.6875 223.566406 331.78125 223.566406 C 332.871094 223.566406 333.757812 224.453125 333.757812 225.542969 "/>
<path fill-rule="nonzero" fill="rgb(8.627319%, 20.783997%, 34.901428%)" fill-opacity="1" d="M 344.714844 231.640625 C 344.714844 232.734375 343.828125 233.617188 342.738281 233.617188 C 341.644531 233.617188 340.761719 232.734375 340.761719 231.640625 C 340.761719 230.546875 341.644531 229.664062 342.738281 229.664062 C 343.828125 229.664062 344.714844 230.546875 344.714844 231.640625 "/>
<path fill-rule="nonzero" fill="rgb(8.627319%, 20.783997%, 34.901428%)" fill-opacity="1" d="M 334.085938 237.984375 C 334.085938 239.078125 333.199219 239.964844 332.109375 239.964844 C 331.015625 239.964844 330.132812 239.078125 330.132812 237.984375 C 330.132812 236.894531 331.015625 236.007812 332.109375 236.007812 C 333.199219 236.007812 334.085938 236.894531 334.085938 237.984375 "/>
<path fill-rule="nonzero" fill="rgb(8.627319%, 20.783997%, 34.901428%)" fill-opacity="1" d="M 377.285156 239.769531 C 377.285156 240.800781 376.449219 241.636719 375.417969 241.636719 C 374.390625 241.636719 373.554688 240.800781 373.554688 239.769531 C 373.554688 238.738281 374.390625 237.902344 375.417969 237.902344 C 376.449219 237.902344 377.285156 238.738281 377.285156 239.769531 "/>
<path fill-rule="nonzero" fill="rgb(8.627319%, 20.783997%, 34.901428%)" fill-opacity="1" d="M 386.511719 234.496094 C 386.511719 235.527344 385.675781 236.363281 384.648438 236.363281 C 383.617188 236.363281 382.78125 235.527344 382.78125 234.496094 C 382.78125 233.464844 383.617188 232.628906 384.648438 232.628906 C 385.675781 232.628906 386.511719 233.464844 386.511719 234.496094 "/>
<path fill-rule="nonzero" fill="rgb(8.627319%, 20.783997%, 34.901428%)" fill-opacity="1" d="M 385.523438 246.609375 C 385.523438 247.636719 384.6875 248.472656 383.660156 248.472656 C 382.628906 248.472656 381.792969 247.636719 381.792969 246.609375 C 381.792969 245.578125 382.628906 244.742188 383.660156 244.742188 C 384.6875 244.742188 385.523438 245.578125 385.523438 246.609375 "/>
<path fill-rule="nonzero" fill="rgb(8.627319%, 20.783997%, 34.901428%)" fill-opacity="1" d="M 336.695312 199.019531 C 340.214844 208.171875 346.964844 219.082031 360.363281 227.9375 C 364.765625 230.847656 370.476562 230.828125 374.90625 227.960938 C 384.21875 221.929688 389.9375 215.488281 395.882812 206.703125 C 402.472656 196.960938 398.804688 183.902344 387.335938 181.285156 C 373.6875 178.167969 359.289062 179.777344 348.203125 181.65625 C 339.949219 183.054688 333.695312 191.207031 336.695312 199.019531 "/>
<path fill-rule="nonzero" fill="rgb(80.392456%, 44.7052%, 61.177063%)" fill-opacity="1" d="M 290.636719 290.855469 C 306.019531 305.578125 304.480469 325.792969 314.148438 338.753906 C 323.816406 351.71875 339.195312 364.902344 359.1875 358.96875 C 379.183594 353.035156 383.796875 335.457031 383.359375 324.253906 C 382.917969 313.046875 378.964844 303.160156 371.054688 296.566406 C 363.144531 289.976562 341.609375 274.375 341.609375 274.375 C 341.609375 274.375 322.714844 287.339844 314.148438 289.097656 C 305.578125 290.855469 290.636719 290.855469 290.636719 290.855469 "/>
<path fill-rule="nonzero" fill="rgb(8.627319%, 20.783997%, 34.901428%)" fill-opacity="1" d="M 325.1875 285.691406 C 332.277344 288.84375 346.289062 298.617188 354.851562 325.515625 C 355.089844 326.265625 356.203125 326.097656 356.195312 325.3125 C 356.007812 301.691406 333.207031 283.375 329.308594 283.21875 C 325.1875 283.054688 325.1875 285.691406 325.1875 285.691406 "/>
<path fill-rule="nonzero" fill="rgb(8.627319%, 20.783997%, 34.901428%)" fill-opacity="1" d="M 239.992188 276.628906 C 250.539062 319.472656 260.753906 325.40625 267.347656 329.195312 C 273.9375 332.988281 280.582031 333.089844 286.460938 331.175781 C 285.472656 336.613281 283.992188 340.074219 283.992188 340.074219 C 249.714844 343.203125 243.945312 308.597656 239.992188 276.628906 "/>
<path fill-rule="nonzero" fill="rgb(8.627319%, 20.783997%, 34.901428%)" fill-opacity="1" d="M 371.492188 227.851562 C 365.890625 247.460938 347.269531 283.550781 311.179688 291.953125 C 278.683594 299.523438 249.929688 270.347656 241.878906 256.402344 C 241.433594 255.628906 242.453125 254.847656 243.089844 255.476562 C 261.765625 273.96875 282.847656 293.792969 309.699219 288.328125 C 334.25 282.890625 356.664062 260.808594 368.363281 228.511719 Z M 371.492188 227.851562 "/>
<path fill-rule="nonzero" fill="rgb(100%, 100%, 100%)" fill-opacity="1" d="M 116.792969 166.347656 C 117.480469 169.21875 118.328125 172.199219 119.367188 175.285156 C 123.621094 187.851562 129.371094 198.910156 133.167969 205.574219 C 141.183594 214.125 152.679688 224 169.132812 235.046875 C 183.195312 178.796875 182.316406 151.554688 167.15625 150.234375 C 149.578125 149.578125 147.242188 165.683594 146.5 179.675781 C 141.054688 167.105469 125.816406 154.351562 116.792969 166.347656 "/>
<path fill-rule="nonzero" fill="rgb(100%, 100%, 100%)" fill-opacity="1" d="M 297.007812 157.210938 C 297.007812 168.648438 287.679688 177.917969 276.171875 177.917969 C 264.664062 177.917969 255.335938 168.648438 255.335938 157.210938 C 255.335938 145.773438 264.664062 136.503906 276.171875 136.503906 C 287.679688 136.503906 297.007812 145.773438 297.007812 157.210938 "/>
<path fill-rule="nonzero" fill="rgb(100%, 100%, 100%)" fill-opacity="1" d="M 364.421875 150.832031 C 364.421875 159.375 358.664062 166.296875 351.558594 166.296875 C 344.453125 166.296875 338.691406 159.375 338.691406 150.832031 C 338.691406 142.289062 344.453125 135.367188 351.558594 135.367188 C 358.664062 135.367188 364.421875 142.289062 364.421875 150.832031 "/>
<g clip-path="url(#clip-1)">
<g clip-path="url(#clip-2)">
<path fill-rule="nonzero" fill="rgb(8.627319%, 20.783997%, 34.901428%)" fill-opacity="1" d="M 287.339844 172.316406 C 287.339844 181.964844 279.765625 189.785156 270.421875 189.785156 C 261.078125 189.785156 253.503906 181.964844 253.503906 172.316406 C 253.503906 162.671875 261.078125 154.847656 270.421875 154.847656 C 279.765625 154.847656 287.339844 162.671875 287.339844 172.316406 "/>
</g>
</g>
<g clip-path="url(#clip-3)">
<g clip-path="url(#clip-4)">
<path fill-rule="nonzero" fill="rgb(8.627319%, 20.783997%, 34.901428%)" fill-opacity="1" d="M 357.429688 161.992188 C 357.429688 168.484375 352.167969 173.746094 345.675781 173.746094 C 339.183594 173.746094 333.921875 168.484375 333.921875 161.992188 C 333.921875 155.5 339.183594 150.234375 345.675781 150.234375 C 352.167969 150.234375 357.429688 155.5 357.429688 161.992188 "/>
</g>
</g>
<path fill-rule="nonzero" fill="rgb(8.627319%, 20.783997%, 34.901428%)" fill-opacity="1" d="M 338.699219 164.570312 C 348.917969 166.382812 367.867188 172.644531 367.867188 172.644531 L 368.691406 169.679688 C 368.691406 169.679688 354.683594 162.101562 338.699219 164.570312 "/>
</svg>
