<?xml version="1.0" encoding="UTF-8"?>
<svg xmlns="http://www.w3.org/2000/svg" xmlns:xlink="http://www.w3.org/1999/xlink" width="401.575pt" height="469.27pt" viewBox="0 0 401.575 469.27">
<defs>
<clipPath id="clip-0">
<path clip-rule="nonzero" d="M 0.101562 0 L 401.050781 0 L 401.050781 468.542969 L 0.101562 468.542969 Z M 0.101562 0 "/>
</clipPath>
<clipPath id="clip-1">
<path clip-rule="nonzero" d="M 119 148 L 134 148 L 134 166 L 119 166 Z M 119 148 "/>
</clipPath>
<clipPath id="clip-2">
<path clip-rule="nonzero" d="M 111.6875 157.757812 C 111.6875 163.945312 115.960938 168.960938 122.039062 168.960938 C 128.121094 168.960938 133.050781 163.945312 133.050781 157.757812 C 133.050781 151.570312 128.121094 146.554688 122.039062 146.554688 C 115.960938 146.554688 111.6875 151.570312 111.6875 157.757812 "/>
</clipPath>
</defs>

<path fill-rule="nonzero" fill="rgb(8.699036%, 20.599365%, 35.598755%)" fill-opacity="1" d="M 177.917969 335.632812 C 174.84375 349.472656 174.917969 356.28125 198.714844 366.605469 C 207.574219 371.660156 197.910156 373.636719 189.34375 371 C 180.773438 368.363281 171.988281 369.683594 169.132812 376.929688 C 166.277344 384.179688 167.605469 392.089844 182.3125 390.992188 C 199.691406 391.195312 224.050781 389.011719 224.050781 389.011719 L 228.222656 338.269531 Z M 177.917969 335.632812 "/>
<path fill-rule="nonzero" fill="rgb(8.699036%, 20.599365%, 35.598755%)" fill-opacity="1" d="M 194.640625 392.199219 C 194.640625 395.535156 154.371094 398.238281 129.371094 398.238281 C 104.375 398.238281 104.109375 395.535156 104.109375 392.199219 C 104.109375 388.863281 103.933594 388.792969 128.933594 388.792969 C 153.933594 388.792969 194.640625 388.863281 194.640625 392.199219 "/>
<path fill-rule="nonzero" fill="rgb(8.699036%, 20.599365%, 35.598755%)" fill-opacity="1" d="M 243.378906 398.238281 C 243.378906 405.511719 216.21875 405.511719 200.324219 405.511719 C 184.433594 405.511719 182.972656 402.28125 182.972656 398.265625 C 182.972656 394.246094 184.433594 393.515625 200.324219 393.515625 C 216.21875 393.515625 243.378906 392.527344 243.378906 398.238281 "/>
<path fill-rule="nonzero" fill="rgb(8.699036%, 20.599365%, 35.598755%)" fill-opacity="1" d="M 266.445312 389.851562 C 266.445312 397.125 239.285156 397.125 223.390625 397.125 C 207.496094 397.125 206.035156 393.890625 206.035156 389.875 C 206.035156 385.855469 207.496094 385.128906 223.390625 385.128906 C 239.285156 385.128906 266.445312 384.136719 266.445312 389.851562 "/>
<path fill-rule="nonzero" fill="rgb(8.699036%, 20.599365%, 35.598755%)" fill-opacity="1" d="M 324.878906 395.839844 C 324.878906 403.089844 292.664062 403.089844 276.769531 403.089844 C 260.875 403.089844 259.417969 399.859375 259.417969 395.839844 C 259.417969 391.824219 260.875 391.09375 276.769531 391.09375 C 292.664062 391.09375 324.878906 391.09375 324.878906 395.839844 "/>
<path fill-rule="nonzero" fill="rgb(46.998596%, 78.09906%, 78.69873%)" fill-opacity="1" d="M 140.464844 111.679688 C 141.726562 94.3125 138.453125 74.824219 94.375 53.21875 C 90.863281 51.496094 86.585938 52.523438 84.304688 55.699219 C 50.738281 102.488281 79.535156 154.136719 97.628906 161.4375 C 86.425781 186.148438 89.394531 211.191406 112.789062 225.359375 C 96.972656 266.21875 123.222656 307.296875 124.648438 336.730469 C 125.96875 353.535156 124.320312 373.636719 121.246094 376.050781 C 118.167969 378.46875 109.992188 372.320312 104.746094 376.050781 C 99.496094 379.785156 95.105469 396.042969 109.601562 396.921875 C 124.101562 397.800781 139.695312 397.800781 145.40625 387.914062 C 151.121094 378.03125 161.882812 358.917969 165.617188 334.535156 C 174.40625 342.003906 186.707031 344.199219 195.933594 344.859375 C 195.933594 368.144531 193.296875 379.566406 191.097656 381.105469 C 188.902344 382.640625 179.238281 378.46875 175.503906 384.621094 C 171.769531 390.769531 171.550781 403.730469 185.828125 405.046875 C 200.105469 406.367188 208.671875 406.75 217.898438 394.285156 C 226.585938 394.371094 249.089844 393.1875 249.089844 393.1875 C 249.3125 399.777344 260.515625 403.292969 272.15625 403.292969 C 283.800781 403.292969 295.222656 402.191406 302.910156 392.308594 C 310.597656 382.421875 325.976562 357.378906 328.171875 339.808594 C 330.367188 322.234375 324.65625 294.554688 302.910156 269.292969 C 287.535156 251.28125 260.515625 239.199219 250.191406 226.898438 C 243.601562 213.71875 231.519531 190.210938 231.519531 190.210938 C 229.761719 169.5625 224.269531 162.535156 224.269531 162.535156 C 265.675781 137.691406 255.589844 82.167969 244.121094 59.445312 C 241.109375 53.472656 234.316406 50.445312 227.871094 52.234375 C 201.933594 59.425781 172.886719 84.792969 178.140625 112.230469 C 159.90625 104.980469 140.464844 111.679688 140.464844 111.679688 "/>
<path fill-rule="nonzero" fill="rgb(8.699036%, 20.599365%, 35.598755%)" fill-opacity="1" d="M 165.617188 334.535156 C 150.019531 321.792969 137.28125 304 134.425781 299.605469 C 143.652344 324.648438 163.96875 343.175781 163.96875 343.175781 C 164.808594 339.722656 165.617188 334.535156 165.617188 334.535156 "/>
<path fill-rule="nonzero" fill="rgb(8.699036%, 20.599365%, 35.598755%)" fill-opacity="1" d="M 108.609375 396.832031 C 109.390625 390.847656 112.03125 385.058594 115.859375 382.070312 C 116.535156 381.542969 117.433594 382.347656 117 383.089844 C 113.582031 388.917969 113.300781 393.972656 112.871094 397.125 C 110.5625 397.15625 108.609375 396.832031 108.609375 396.832031 "/>
<path fill-rule="nonzero" fill="rgb(8.699036%, 20.599365%, 35.598755%)" fill-opacity="1" d="M 182.015625 404.335938 C 182.328125 397.71875 184.945312 391.472656 187.976562 388.363281 C 188.460938 387.867188 189.265625 388.390625 189.003906 389.03125 C 186.808594 394.457031 185.304688 400.949219 185.097656 404.96875 C 183.261719 404.898438 182.015625 404.335938 182.015625 404.335938 "/>
<path fill-rule="nonzero" fill="rgb(8.699036%, 20.599365%, 35.598755%)" fill-opacity="1" d="M 194.957031 405.539062 C 195.410156 397.289062 198.507812 391.683594 200.769531 388.832031 C 201.269531 388.203125 202.269531 388.699219 202.078125 389.476562 C 200.574219 394.3125 199.277344 401.3125 198.847656 405.402344 C 196.5625 405.722656 194.957031 405.539062 194.957031 405.539062 "/>
<path fill-rule="nonzero" fill="rgb(8.699036%, 20.599365%, 35.598755%)" fill-opacity="1" d="M 217.898438 394.285156 C 228.222656 381.214844 237.175781 356.996094 248.378906 310.867188 C 251.507812 351.066406 226.46875 394.148438 226.46875 394.148438 C 226.46875 394.148438 220.207031 396.644531 217.898438 394.285156 "/>
<path fill-rule="nonzero" fill="rgb(8.699036%, 20.599365%, 35.598755%)" fill-opacity="1" d="M 195.933594 344.859375 C 195.933594 326.1875 192.03125 305.429688 191.042969 300.488281 L 191.042969 344.378906 C 191.042969 344.378906 193.980469 345.039062 195.933594 344.859375 "/>
<path fill-rule="nonzero" fill="rgb(8.699036%, 20.599365%, 35.598755%)" fill-opacity="1" d="M 249.089844 393.1875 C 249.3125 386.597656 256.890625 382.753906 269.960938 383.632812 C 283.03125 384.511719 287.644531 386.597656 287.644531 386.597656 C 275.230469 377.808594 260.183594 379.347656 253.15625 382.421875 C 244.917969 385.664062 245.355469 393.375 245.355469 393.375 C 246.535156 393.433594 247.761719 393.40625 249.089844 393.1875 "/>
<path fill-rule="nonzero" fill="rgb(8.699036%, 20.599365%, 35.598755%)" fill-opacity="1" d="M 257.792969 401.238281 C 258.628906 394.636719 262.1875 391.296875 264.796875 389.726562 C 265.59375 389.246094 266.507812 390.128906 266.050781 390.9375 C 264.074219 394.445312 262.796875 396.941406 261.441406 402.222656 C 259.167969 402.027344 257.792969 401.238281 257.792969 401.238281 "/>
<path fill-rule="nonzero" fill="rgb(8.699036%, 20.599365%, 35.598755%)" fill-opacity="1" d="M 268.285156 403.160156 C 269.066406 397.460938 272.113281 393.523438 274.625 391.390625 C 275.28125 390.832031 276.238281 391.558594 275.886719 392.347656 C 273.375 397.96875 272.902344 400.015625 272.15625 403.292969 C 269.988281 403.457031 268.285156 403.160156 268.285156 403.160156 "/>
<path fill-rule="nonzero" fill="rgb(8.699036%, 20.599365%, 35.598755%)" fill-opacity="1" d="M 277.097656 382.640625 C 271.386719 364.960938 261.496094 332.230469 266.496094 319.160156 C 270.730469 309.820312 283.140625 300.925781 302.910156 298.621094 C 280.832031 294.554688 266.496094 309.164062 263.039062 317.839844 C 256.121094 336.953125 270.179688 370.449219 273.585938 381.984375 C 275.960938 382.640625 277.097656 382.640625 277.097656 382.640625 "/>
<path fill-rule="nonzero" fill="rgb(8.699036%, 20.599365%, 35.598755%)" fill-opacity="1" d="M 284.898438 328.605469 C 283.46875 328.054688 279.84375 333.546875 281.382812 334.863281 C 282.921875 336.183594 286.324219 329.152344 284.898438 328.605469 "/>
<path fill-rule="nonzero" fill="rgb(8.699036%, 20.599365%, 35.598755%)" fill-opacity="1" d="M 289.402344 337.390625 C 287.535156 337.28125 286.214844 342.699219 288.300781 343.175781 C 290.390625 343.652344 291.269531 337.5 289.402344 337.390625 "/>
<path fill-rule="nonzero" fill="rgb(8.699036%, 20.599365%, 35.598755%)" fill-opacity="1" d="M 294.453125 324.980469 C 292.695312 323.769531 290.390625 329.371094 292.148438 330.25 C 293.902344 331.128906 296.210938 326.1875 294.453125 324.980469 "/>
<path fill-rule="nonzero" fill="rgb(8.699036%, 20.599365%, 35.598755%)" fill-opacity="1" d="M 231.078125 253.039062 C 229.210938 253.476562 231.078125 259.738281 232.617188 259.628906 C 234.152344 259.519531 232.945312 252.597656 231.078125 253.039062 "/>
<path fill-rule="nonzero" fill="rgb(8.699036%, 20.599365%, 35.598755%)" fill-opacity="1" d="M 236.132812 244.800781 C 233.496094 245.570312 235.582031 251.390625 238.21875 250.621094 C 240.855469 249.851562 238.765625 244.03125 236.132812 244.800781 "/>
<path fill-rule="nonzero" fill="rgb(8.699036%, 20.599365%, 35.598755%)" fill-opacity="1" d="M 239.433594 257.542969 C 237.667969 258.308594 239.316406 264.128906 241.402344 263.691406 C 243.492188 263.253906 241.199219 256.773438 239.433594 257.542969 "/>
<path fill-rule="nonzero" fill="rgb(8.699036%, 20.599365%, 35.598755%)" fill-opacity="1" d="M 250.191406 226.898438 C 263.207031 249.25 271.441406 283.023438 279.351562 290.4375 C 287.257812 297.851562 296.980469 298.671875 296.980469 298.671875 C 313.621094 309.054688 324.144531 324.414062 327.613281 343.175781 C 332.894531 313.335938 318.726562 285.988281 302.910156 269.292969 C 288.082031 252.050781 260.898438 236.835938 250.191406 226.898438 "/>
<path fill-rule="nonzero" fill="rgb(100%, 100%, 100%)" fill-opacity="1" d="M 160.894531 272.644531 C 151.339844 259.792969 144.253906 257.320312 137.664062 262.429688 C 131.074219 267.535156 132.886719 291.917969 171.4375 311.691406 C 180.847656 287.460938 196.8125 263.714844 178.851562 256.324219 C 164.355469 252.050781 160.894531 272.644531 160.894531 272.644531 "/>
<path fill-rule="nonzero" fill="rgb(8.699036%, 20.599365%, 35.598755%)" fill-opacity="1" d="M 231.519531 190.210938 C 230.75 203.777344 225.148438 220.746094 204.882812 232.277344 C 231.519531 225.523438 234.128906 195.304688 234.128906 195.304688 C 233.355469 193.589844 232.472656 191.894531 231.519531 190.210938 "/>
<path fill-rule="nonzero" fill="rgb(8.699036%, 20.599365%, 35.598755%)" fill-opacity="1" d="M 112.785156 225.359375 C 116.988281 227.5 122.671875 229.3125 124.402344 229.726562 C 116.988281 230.550781 111.773438 228.152344 111.773438 228.152344 C 112.039062 227.277344 112.367188 226.355469 112.785156 225.359375 "/>
<path fill-rule="nonzero" fill="rgb(8.699036%, 20.599365%, 35.598755%)" fill-opacity="1" d="M 140.410156 165.390625 C 141 165.390625 140.289062 167.285156 139.703125 168.261719 C 131.539062 181.867188 109.300781 178.28125 99.765625 186.476562 C 98.839844 187.273438 98.234375 188.261719 97.851562 188.042969 C 97.410156 187.824219 98.21875 186.402344 98.742188 185.53125 C 105.863281 173.640625 125.007812 182.214844 138.160156 167.476562 C 139.046875 166.511719 139.820312 165.390625 140.410156 165.390625 "/>
<path fill-rule="nonzero" fill="rgb(8.699036%, 20.599365%, 35.598755%)" fill-opacity="1" d="M 192.085938 200.867188 C 187.003906 209.105469 174.402344 221.1875 158.039062 219.539062 C 141.675781 217.890625 131.457031 211.410156 125.96875 203.613281 C 139.476562 206.359375 152.765625 200.097656 156.28125 195.375 C 160.015625 198.78125 172.097656 207.015625 192.085938 200.867188 "/>
<path fill-rule="nonzero" fill="rgb(80.099487%, 34.999084%, 38.598633%)" fill-opacity="1" d="M 149.449219 200.425781 C 144.308594 207.457031 140.03125 213.609375 140.632812 224.371094 C 141.234375 235.136719 149.25 238.648438 156.832031 238.757812 C 164.410156 238.871094 173.746094 235.027344 174.84375 221.515625 C 175.941406 208.003906 172.136719 202.605469 172.136719 202.605469 L 156.28125 195.375 Z M 149.449219 200.425781 "/>
<path fill-rule="nonzero" fill="rgb(8.699036%, 20.599365%, 35.598755%)" fill-opacity="1" d="M 113.664062 196.144531 C 127.945312 204.269531 144.859375 206.578125 156.722656 192.519531 C 172.976562 204.269531 184.464844 206.261719 206.367188 189.003906 C 206.367188 197.792969 181.371094 212.179688 160.863281 201.085938 C 156.5 207.128906 156.609375 218.21875 156.609375 218.21875 C 152.988281 211.246094 156.226562 201.304688 156.226562 201.304688 C 150.515625 201.222656 145.902344 204.4375 145.902344 204.4375 C 133.050781 210.367188 120.914062 204.820312 113.664062 196.144531 "/>
<path fill-rule="nonzero" fill="rgb(8.699036%, 20.599365%, 35.598755%)" fill-opacity="1" d="M 137.335938 183.429688 C 137.335938 184.296875 136.488281 184.996094 135.441406 184.996094 C 134.394531 184.996094 133.546875 184.296875 133.546875 183.429688 C 133.546875 182.566406 134.394531 181.863281 135.441406 181.863281 C 136.488281 181.863281 137.335938 182.566406 137.335938 183.429688 "/>
<path fill-rule="nonzero" fill="rgb(8.699036%, 20.599365%, 35.598755%)" fill-opacity="1" d="M 130.992188 188.714844 C 130.960938 189.578125 130.085938 190.246094 129.042969 190.210938 C 127.996094 190.171875 127.175781 189.445312 127.203125 188.582031 C 127.234375 187.714844 128.109375 187.046875 129.152344 187.082031 C 130.199219 187.121094 131.023438 187.851562 130.992188 188.714844 "/>
<path fill-rule="nonzero" fill="rgb(8.699036%, 20.599365%, 35.598755%)" fill-opacity="1" d="M 139.230469 190.28125 C 139.199219 191.144531 138.324219 191.8125 137.28125 191.777344 C 136.234375 191.738281 135.410156 191.007812 135.441406 190.144531 C 135.472656 189.28125 136.34375 188.609375 137.390625 188.648438 C 138.4375 188.683594 139.257812 189.417969 139.230469 190.28125 "/>
<path fill-rule="nonzero" fill="rgb(8.699036%, 20.599365%, 35.598755%)" fill-opacity="1" d="M 176.546875 188.210938 C 176.484375 189.074219 175.589844 189.710938 174.546875 189.636719 C 173.5 189.558594 172.707031 188.800781 172.769531 187.9375 C 172.832031 187.074219 173.726562 186.4375 174.773438 186.511719 C 175.816406 186.589844 176.609375 187.351562 176.546875 188.210938 "/>
<path fill-rule="nonzero" fill="rgb(8.699036%, 20.599365%, 35.598755%)" fill-opacity="1" d="M 183.789062 182.933594 C 183.695312 183.789062 182.773438 184.394531 181.734375 184.277344 C 180.691406 184.15625 179.929688 183.367188 180.023438 182.507812 C 180.121094 181.648438 181.042969 181.046875 182.082031 181.164062 C 183.121094 181.28125 183.886719 182.074219 183.789062 182.933594 "/>
<path fill-rule="nonzero" fill="rgb(8.699036%, 20.599365%, 35.598755%)" fill-opacity="1" d="M 186.589844 190.425781 C 186.496094 191.28125 185.574219 191.886719 184.535156 191.769531 C 183.492188 191.652344 182.730469 190.859375 182.824219 190 C 182.921875 189.140625 183.84375 188.539062 184.882812 188.65625 C 185.921875 188.773438 186.6875 189.566406 186.589844 190.425781 "/>
<path fill-rule="nonzero" fill="rgb(8.699036%, 20.599365%, 35.598755%)" fill-opacity="1" d="M 171.824219 170.515625 C 161.382812 165.828125 150.363281 166.785156 141.847656 172.835938 C 141.09375 173.371094 140.847656 174.375 141.316406 175.171875 C 141.875 176.117188 142.777344 177.496094 144.085938 179.125 C 144.609375 179.773438 145.632812 179.675781 146.027344 178.945312 C 147.792969 175.691406 150.496094 175.011719 152.574219 176.015625 C 154.5625 176.976562 153.160156 181.265625 150.40625 183.144531 C 149.636719 183.667969 149.519531 184.761719 150.234375 185.363281 C 151.917969 186.78125 153.855469 188.222656 156.085938 189.628906 C 156.679688 190 157.445312 190.007812 158.03125 189.621094 C 159.632812 188.574219 161.738281 186.792969 163.925781 184.566406 C 164.40625 184.078125 164.273438 183.234375 163.640625 182.972656 C 159.136719 181.101562 159.757812 177.082031 160.8125 175.589844 C 161.835938 174.144531 165.496094 174.109375 168.042969 177.332031 C 168.554688 177.980469 169.554688 177.933594 170.027344 177.253906 C 171 175.863281 171.902344 174.429688 172.675781 172.976562 C 173.160156 172.066406 172.765625 170.941406 171.824219 170.515625 "/>
<path fill-rule="nonzero" fill="rgb(8.699036%, 20.599365%, 35.598755%)" fill-opacity="1" d="M 148.949219 124.367188 C 149.785156 124.367188 149.785156 125.683594 149.773438 129.144531 C 149.9375 136.476562 148.371094 141.582031 148.042969 142.65625 C 147.714844 143.726562 145.820312 147.898438 144.007812 147.679688 C 143.648438 147.210938 144.582031 143.148438 144.832031 141.5 C 145.078125 139.855469 145.324219 133.511719 146.972656 127.992188 C 147.21875 126.921875 147.46875 124.367188 148.949219 124.367188 "/>
<path fill-rule="nonzero" fill="rgb(8.699036%, 20.599365%, 35.598755%)" fill-opacity="1" d="M 154.304688 135.242188 C 154.964844 135.242188 156.117188 143.394531 155.953125 145.785156 C 155.789062 148.171875 154.964844 152.292969 153.890625 152.539062 C 152.523438 152.429688 152.492188 149.328125 152.574219 148.257812 C 152.65625 147.183594 153.316406 141.75 153.644531 139.523438 C 153.976562 137.300781 153.644531 135.242188 154.304688 135.242188 "/>
<path fill-rule="nonzero" fill="rgb(8.699036%, 20.599365%, 35.598755%)" fill-opacity="1" d="M 162.53125 108.945312 C 155.375 139.234375 162.046875 160.117188 180.859375 172.105469 C 196.808594 182.71875 226.960938 174.453125 231.078125 194.761719 C 234.210938 186.480469 227.675781 164.621094 224.269531 162.535156 C 257.15625 148.007812 263.558594 88.707031 243.121094 57.339844 C 240.285156 52.992188 235.121094 50.734375 230.019531 51.707031 C 204.820312 56.515625 172.609375 81.90625 178.136719 112.230469 C 171.4375 108.878906 162.53125 108.945312 162.53125 108.945312 "/>
<path fill-rule="nonzero" fill="rgb(8.699036%, 20.599365%, 35.598755%)" fill-opacity="1" d="M 140.464844 111.679688 C 114.765625 123.121094 109.222656 136.027344 97.628906 161.4375 C 65.007812 147.6875 60.660156 89.097656 81.578125 57.109375 C 84.859375 52.085938 91.453125 50.386719 96.730469 53.238281 C 132.816406 72.753906 142.761719 89.015625 140.464844 111.679688 "/>
<path fill-rule="nonzero" fill="rgb(80.099487%, 34.999084%, 38.598633%)" fill-opacity="1" d="M 122.730469 122.132812 C 123.496094 103.609375 103.230469 88.453125 98.453125 85.816406 C 88.238281 110.363281 95.824219 131.660156 107.847656 140.371094 C 114.050781 129.695312 119.003906 125.640625 122.730469 122.132812 "/>
<path fill-rule="nonzero" fill="rgb(80.099487%, 34.999084%, 38.598633%)" fill-opacity="1" d="M 198.714844 124.367188 C 202.523438 128.484375 208.976562 137.222656 210.539062 139.910156 C 232.726562 121.785156 227.453125 94 223.941406 85.816406 C 198.714844 99.050781 198.75 121.347656 198.714844 124.367188 "/>
<path fill-rule="nonzero" fill="rgb(100%, 100%, 100%)" fill-opacity="1" d="M 206.371094 155.15625 C 206.566406 161.816406 201.644531 166.738281 195.398438 166.921875 C 189.152344 167.105469 183.953125 162.484375 183.753906 155.824219 C 183.558594 149.160156 188.460938 143.613281 194.707031 143.429688 C 200.953125 143.242188 206.171875 148.496094 206.371094 155.15625 "/>
<path fill-rule="nonzero" fill="rgb(100%, 100%, 100%)" fill-opacity="1" d="M 133.050781 157.757812 C 133.050781 163.945312 128.121094 168.960938 122.039062 168.960938 C 115.960938 168.960938 111.6875 163.945312 111.6875 157.757812 C 111.6875 151.570312 115.960938 146.554688 122.039062 146.554688 C 128.121094 146.554688 133.050781 151.570312 133.050781 157.757812 "/>
<path fill-rule="nonzero" fill="rgb(8.699036%, 20.599365%, 35.598755%)" fill-opacity="1" d="M 199.308594 156.226562 C 199.308594 160.945312 195.972656 164.765625 191.855469 164.765625 C 187.738281 164.765625 184.398438 160.945312 184.398438 156.226562 C 184.398438 151.511719 187.738281 147.6875 191.855469 147.6875 C 195.972656 147.6875 199.308594 151.511719 199.308594 156.226562 "/>
<g clip-path="url(#clip-1)">
<g clip-path="url(#clip-2)">
<path fill-rule="nonzero" fill="rgb(8.699036%, 20.599365%, 35.598755%)" fill-opacity="1" d="M 134.148438 157.398438 C 134.148438 162.054688 130.855469 165.828125 126.792969 165.828125 C 122.726562 165.828125 119.433594 162.054688 119.433594 157.398438 C 119.433594 152.742188 122.726562 148.96875 126.792969 148.96875 C 130.855469 148.96875 134.148438 152.742188 134.148438 157.398438 "/>
</g>
</g>
</svg>
