<?xml version="1.0" encoding="UTF-8"?>
<svg xmlns="http://www.w3.org/2000/svg" xmlns:xlink="http://www.w3.org/1999/xlink" width="1206.35pt" height="1927.45pt" viewBox="0 0 1206.35 1927.45">
<defs>
<clipPath id="clip-0">
<path clip-rule="nonzero" d="M 0 0.242188 L 1205.699219 0.242188 L 1205.699219 1926.65625 L 0 1926.65625 Z M 0 0.242188 "/>
</clipPath>
</defs>

<path fill-rule="nonzero" fill="rgb(92.549133%, 60.784912%, 68.62793%)" fill-opacity="1" d="M 630.230469 119.648438 C 592.234375 119.648438 580.414062 196.527344 535.675781 226.585938 C 485.550781 260.128906 420.296875 246.847656 368.519531 295.8125 C 316.738281 344.777344 330.179688 386.011719 280.746094 436.460938 C 228.964844 488.242188 197.6875 496.082031 177.988281 555.175781 C 158.289062 614.273438 214.171875 648.675781 249.730469 648.148438 C 285.289062 647.625 330.246094 630.128906 345.441406 603.675781 C 348.832031 630.199219 361.765625 698.792969 361.765625 698.792969 C 333.625 739.878906 304.917969 750.011719 279.59375 759.578125 C 209.242188 718.179688 163.652344 659.394531 138.886719 674.027344 C 114.125 688.664062 120.3125 719.054688 129.882812 741.566406 C 139.449219 764.082031 188.976562 871.015625 258.769531 887.902344 C 316.175781 903.097656 375.859375 842.875 375.859375 842.875 C 384.769531 904.746094 415.492188 1119.820312 421.46875 1153.957031 C 427.441406 1188.097656 403.542969 1285.394531 401.835938 1362.207031 C 400.128906 1439.019531 399.292969 1518.410156 440.550781 1645.085938 C 445.128906 1658.304688 446.042969 1667.273438 442.09375 1670.683594 C 432.652344 1679.113281 407.027344 1665.125 398.71875 1696.25 C 396.964844 1705.890625 397.980469 1715.980469 403.988281 1726.328125 C 411.09375 1740.003906 431.253906 1741.546875 440.550781 1741.546875 C 478.320312 1741.546875 505.632812 1743.289062 514.929688 1738.640625 C 524.226562 1733.992188 537.011719 1727.019531 556.1875 1696.222656 C 575.363281 1665.425781 598.027344 1623.003906 611.972656 1596.855469 C 625.917969 1570.707031 666.015625 1473.082031 717.730469 1473.664062 C 739.808594 1473.976562 765.960938 1517.828125 801.40625 1559.085938 C 836.855469 1600.34375 880.765625 1659.578125 891.3125 1671.445312 C 884.0625 1682.320312 863.957031 1668.476562 849.457031 1693.523438 C 834.953125 1718.574219 858.285156 1740.261719 877.652344 1740.011719 C 892.589844 1739.820312 937.976562 1739.921875 957.972656 1739.980469 C 963.914062 1739.996094 969.222656 1736.230469 971.105469 1730.59375 C 984.3125 1691.109375 999.253906 1603.460938 998.691406 1532.34375 C 998.082031 1454.839844 973.929688 1298.941406 927.519531 1180.179688 C 1009.941406 1055.15625 960.988281 861.410156 922.058594 835.511719 C 926.835938 882.605469 928.199219 993.855469 887.25 1077.121094 C 832.648438 941.300781 770.539062 847.113281 743.238281 792.511719 C 815.585938 808.894531 855.855469 808.894531 876.328125 804.796875 C 896.804688 800.703125 1011.46875 741.324219 1055.832031 675.800781 C 1087.910156 619.835938 1056.511719 593.21875 1043.546875 588.441406 C 1030.578125 583.660156 1014.199219 591.171875 993.039062 610.964844 C 971.882812 630.753906 900.902344 664.199219 875.648438 667.613281 C 850.394531 671.023438 709.796875 629.390625 709.796875 629.390625 C 677.71875 537.25 648.367188 426.683594 648.367188 426.683594 C 713.144531 383.855469 751.355469 359.871094 739.160156 328.574219 C 733.605469 318.144531 715.175781 325.726562 699.324219 331.417969 C 683.472656 337.109375 635.507812 353.367188 616.402344 358.652344 C 699.816406 284.695312 685.992188 211.375 682.09375 187.035156 C 676.730469 153.546875 656.90625 119.648438 630.230469 119.648438 "/>
<path fill-rule="nonzero" fill="rgb(77.6474%, 27.058411%, 39.215088%)" fill-opacity="1" d="M 667.988281 346.089844 C 694.789062 320.777344 700.230469 272.445312 710.273438 245.738281 C 743.625 264.199219 784.121094 268.367188 801.097656 242.164062 C 818.070312 215.960938 789.480469 157.890625 715.929688 180.820312 C 704.019531 171.589844 681.089844 182.011719 675.132812 192.730469 C 669.179688 203.453125 602.851562 369.316406 602.851562 369.316406 Z M 667.988281 346.089844 "/>
<path fill-rule="nonzero" fill="rgb(8.627319%, 20.783997%, 35.68573%)" fill-opacity="1" d="M 671.511719 281.433594 C 664.5625 326.105469 651.660156 340.5 642.722656 356.386719 C 633.789062 372.269531 601.773438 366.3125 601.773438 366.3125 Z M 671.511719 281.433594 "/>
<path fill-rule="nonzero" fill="rgb(92.549133%, 60.784912%, 68.62793%)" fill-opacity="1" d="M 1043.546875 588.441406 C 1030.578125 583.664062 1014.199219 591.171875 993.039062 610.960938 C 971.882812 630.757812 900.898438 664.199219 875.648438 667.613281 C 850.394531 671.023438 709.796875 629.390625 709.796875 629.390625 C 677.71875 537.25 648.367188 426.683594 648.367188 426.683594 C 713.144531 383.855469 751.355469 359.875 739.160156 328.574219 C 733.605469 318.148438 715.175781 325.726562 699.324219 331.417969 C 683.472656 337.109375 635.507812 353.367188 616.402344 358.652344 C 699.816406 284.695312 685.992188 211.375 682.09375 187.035156 C 681.980469 186.332031 681.855469 185.628906 681.730469 184.925781 C 673.097656 164.03125 603.527344 146.097656 582.972656 166.199219 C 570.382812 188.125 556.644531 212.496094 535.675781 226.585938 C 485.550781 260.128906 420.296875 246.847656 368.519531 295.8125 C 316.738281 344.777344 330.179688 386.011719 280.746094 436.460938 C 228.96875 488.242188 197.6875 496.078125 177.988281 555.175781 C 158.289062 614.273438 214.175781 648.675781 249.730469 648.148438 C 285.289062 647.625 330.246094 630.128906 345.441406 603.675781 C 348.835938 630.199219 361.765625 698.792969 361.765625 698.792969 C 333.625 739.878906 304.921875 750.011719 279.59375 759.578125 C 209.242188 718.179688 163.652344 659.394531 138.886719 674.027344 C 114.121094 688.664062 120.3125 719.054688 129.882812 741.566406 C 139.449219 764.082031 188.980469 871.015625 258.769531 887.902344 C 316.175781 903.097656 375.859375 842.875 375.859375 842.875 C 384.765625 904.746094 415.492188 1119.820312 421.464844 1153.957031 C 427.441406 1188.097656 403.542969 1285.394531 401.835938 1362.207031 C 400.128906 1439.019531 399.292969 1518.410156 440.550781 1645.085938 C 445.128906 1658.304688 446.042969 1667.273438 442.09375 1670.683594 C 432.652344 1679.117188 407.027344 1665.125 398.714844 1696.25 C 396.960938 1705.890625 397.980469 1715.980469 403.988281 1726.328125 C 411.09375 1740.003906 431.253906 1741.546875 440.550781 1741.546875 C 478.324219 1741.546875 505.632812 1743.289062 514.929688 1738.640625 C 524.230469 1733.992188 537.011719 1727.019531 556.1875 1696.222656 C 575.363281 1665.425781 598.027344 1623.003906 611.972656 1596.855469 C 625.917969 1570.707031 666.015625 1473.082031 717.730469 1473.664062 C 739.808594 1473.976562 765.960938 1517.828125 801.410156 1559.085938 C 836.855469 1600.34375 880.765625 1659.578125 891.3125 1671.445312 C 884.0625 1682.320312 863.957031 1668.476562 849.457031 1693.527344 C 834.953125 1718.574219 858.285156 1740.257812 877.652344 1740.011719 C 892.589844 1739.820312 937.976562 1739.921875 957.972656 1739.980469 C 963.914062 1740 969.222656 1736.230469 971.105469 1730.59375 C 984.3125 1691.109375 999.253906 1603.460938 998.691406 1532.339844 C 998.082031 1454.839844 973.929688 1298.941406 927.519531 1180.183594 C 1009.941406 1055.15625 960.988281 861.410156 922.058594 835.511719 C 926.835938 882.605469 928.203125 993.855469 887.25 1077.121094 C 874.882812 1046.355469 862.125 1017.722656 849.480469 991.203125 C 779.257812 887.09375 732.921875 817.117188 743.238281 792.511719 C 815.585938 808.894531 855.855469 808.894531 876.328125 804.796875 C 896.804688 800.703125 1011.46875 741.324219 1055.832031 675.800781 C 1087.910156 619.835938 1056.515625 593.21875 1043.546875 588.441406 "/>
<path fill-rule="nonzero" fill="rgb(8.627319%, 20.783997%, 35.68573%)" fill-opacity="1" d="M 582.972656 166.199219 C 616.40625 162.050781 646.503906 163.375 681.726562 184.925781 C 675.886719 152.140625 656.347656 119.648438 630.230469 119.648438 C 610.042969 119.648438 597.246094 141.351562 582.972656 166.199219 "/>
<path fill-rule="nonzero" fill="rgb(8.627319%, 20.783997%, 35.68573%)" fill-opacity="1" d="M 516.175781 337.671875 C 512.5 337.671875 511.589844 332.816406 511.886719 329.699219 C 513.707031 303.390625 526.601562 287.097656 546.414062 275.011719 C 549.082031 273.382812 552.082031 272.515625 553.710938 275.1875 C 555.339844 277.859375 554.242188 279.058594 551.625 281.960938 C 540.308594 292.460938 526.261719 308.855469 522.878906 330.347656 C 521.710938 337.671875 517.609375 337.675781 516.175781 337.671875 "/>
<path fill-rule="nonzero" fill="rgb(8.627319%, 20.783997%, 35.68573%)" fill-opacity="1" d="M 394.242188 422.4375 C 394.46875 418.492188 400.09375 418.03125 400.96875 421.882812 C 403.210938 431.710938 404.039062 445.972656 402.503906 467.242188 C 401.5625 485.117188 389.804688 557.085938 391.683594 600.363281 C 393.566406 643.640625 414.265625 697.269531 460.363281 700.089844 C 506.464844 702.914062 543.15625 670.925781 546.917969 582.019531 C 549.652344 517.398438 511.882812 442.59375 489.054688 403.832031 C 486.929688 400.222656 491.933594 396.695312 494.617188 399.917969 C 539.179688 453.449219 560.027344 537.867188 559.621094 581.546875 C 559.625 633.214844 541.328125 712.8125 469.078125 712.800781 C 398.046875 713.742188 382.277344 649.285156 378.984375 601.304688 C 375.875 556 389.542969 504.824219 394.242188 422.4375 "/>
<path fill-rule="nonzero" fill="rgb(8.627319%, 20.783997%, 35.68573%)" fill-opacity="1" d="M 345.441406 603.675781 C 339.21875 548.667969 338.421875 456.296875 333.246094 433.601562 C 327.671875 478.195312 316.316406 580.09375 327.765625 622.710938 C 341.539062 613.082031 345.441406 603.675781 345.441406 603.675781 "/>
<path fill-rule="nonzero" fill="rgb(8.627319%, 20.783997%, 35.68573%)" fill-opacity="1" d="M 375.859375 842.875 C 371.0625 800.109375 363.078125 725.050781 363.078125 725.050781 C 356.15625 746.078125 357.996094 810.332031 364.917969 852.652344 C 372.492188 846.398438 375.859375 842.875 375.859375 842.875 "/>
<path fill-rule="nonzero" fill="rgb(8.627319%, 20.783997%, 35.68573%)" fill-opacity="1" d="M 138.886719 674.027344 C 143.925781 686.457031 156.25 705.605469 163.355469 716.058594 C 164.371094 717.550781 162.8125 719.472656 161.15625 718.757812 C 148.511719 713.304688 134.484375 695.746094 131.121094 680.085938 C 133.363281 677.707031 135.921875 675.65625 138.886719 674.027344 "/>
<path fill-rule="nonzero" fill="rgb(8.627319%, 20.783997%, 35.68573%)" fill-opacity="1" d="M 121.488281 704.378906 C 124.574219 711.511719 138.613281 735.1875 148.769531 748.371094 C 149.820312 749.730469 148.292969 751.589844 146.769531 750.792969 C 135.859375 745.101562 126.785156 733.125 125.878906 731.1875 C 120.460938 716.546875 121.488281 704.378906 121.488281 704.378906 "/>
<path fill-rule="nonzero" fill="rgb(8.627319%, 20.783997%, 35.68573%)" fill-opacity="1" d="M 639.089844 570.480469 C 634.804688 572.011719 637.132812 589.847656 644.960938 587.5 C 652.78125 585.152344 644.566406 568.523438 639.089844 570.480469 "/>
<path fill-rule="nonzero" fill="rgb(8.627319%, 20.783997%, 35.68573%)" fill-opacity="1" d="M 619.527344 597.28125 C 615.84375 598.042969 613.855469 615.667969 622.660156 615.277344 C 631.460938 614.886719 625.203125 596.105469 619.527344 597.28125 "/>
<path fill-rule="nonzero" fill="rgb(8.627319%, 20.783997%, 35.68573%)" fill-opacity="1" d="M 649.652344 621.925781 C 643.394531 622.90625 644.175781 642.859375 651.804688 641.878906 C 659.433594 640.902344 656.109375 621.144531 649.652344 621.925781 "/>
<path fill-rule="nonzero" fill="rgb(100%, 100%, 100%)" fill-opacity="1" d="M 747.046875 799.957031 L 673.328125 771.261719 C 719.898438 858.707031 828.570312 949.839844 852.9375 998.507812 C 811.007812 909.425781 769.761719 843.53125 747.046875 799.957031 "/>
<path fill-rule="nonzero" fill="rgb(8.627319%, 20.783997%, 35.68573%)" fill-opacity="1" d="M 743.238281 792.511719 C 718.480469 785.472656 688.078125 774.9375 674.496094 770.136719 C 673.484375 769.78125 672.808594 771.164062 673.707031 771.746094 C 691.675781 783.34375 716.414062 797.683594 750.746094 806.957031 C 747.296875 799.898438 743.238281 792.511719 743.238281 792.511719 "/>
<path fill-rule="nonzero" fill="rgb(8.627319%, 20.783997%, 35.68573%)" fill-opacity="1" d="M 1024.992188 630.292969 C 1039.265625 616.097656 1048.449219 599.570312 1052.53125 593.699219 C 1054.25 594.644531 1058.339844 598.878906 1060.535156 601.957031 C 1054.742188 615.042969 1038.847656 626.308594 1026.203125 632.035156 C 1025.105469 632.53125 1024.136719 631.144531 1024.992188 630.292969 "/>
<path fill-rule="nonzero" fill="rgb(8.627319%, 20.783997%, 35.68573%)" fill-opacity="1" d="M 618.871094 1147.21875 C 614.378906 1148.296875 616.035156 1168.8125 624.542969 1166.632812 C 633.046875 1164.449219 624.324219 1145.910156 618.871094 1147.21875 "/>
<path fill-rule="nonzero" fill="rgb(8.627319%, 20.783997%, 35.68573%)" fill-opacity="1" d="M 595.648438 1184.296875 C 591.433594 1186.113281 598.804688 1205.671875 605.351562 1203.054688 C 611.890625 1200.4375 602.746094 1181.246094 595.648438 1184.296875 "/>
<path fill-rule="nonzero" fill="rgb(8.627319%, 20.783997%, 35.68573%)" fill-opacity="1" d="M 628.097656 1190.40625 C 622.402344 1192.066406 624.980469 1213.960938 633.265625 1212.652344 C 641.554688 1211.34375 635.582031 1188.222656 628.097656 1190.40625 "/>
<path fill-rule="nonzero" fill="rgb(8.627319%, 20.783997%, 35.68573%)" fill-opacity="1" d="M 887.25 1077.121094 C 869.992188 1124.238281 840.917969 1185.90625 786.765625 1223.445312 C 785.351562 1224.421875 783.730469 1222.542969 784.894531 1221.28125 C 829.78125 1172.738281 869.050781 1101.617188 879.851562 1059.0625 C 884.199219 1068.691406 887.25 1077.121094 887.25 1077.121094 "/>
<path fill-rule="nonzero" fill="rgb(8.627319%, 20.783997%, 35.68573%)" fill-opacity="1" d="M 927.519531 1180.183594 C 909.40625 1207.769531 882.550781 1236.707031 851.96875 1260.082031 C 850.855469 1260.929688 851.957031 1262.644531 853.1875 1261.980469 C 900.042969 1238.109375 932.609375 1193.597656 932.609375 1193.597656 C 931.082031 1189.25 929.371094 1184.765625 927.519531 1180.183594 "/>
<path fill-rule="nonzero" fill="rgb(8.627319%, 20.783997%, 35.68573%)" fill-opacity="1" d="M 784.800781 1277.566406 C 782.144531 1279.714844 785.433594 1289.328125 789.226562 1297.800781 C 780.503906 1305.894531 773.167969 1311.457031 776.203125 1316.011719 C 779.238281 1320.5625 786.066406 1317.023438 793.148438 1309.5625 C 796.6875 1318.667969 799.34375 1323.851562 804.152344 1322.082031 C 808.957031 1320.3125 808.324219 1314.367188 802 1301.59375 C 808.828125 1294.261719 812.242188 1289.707031 809.96875 1286.417969 C 807.691406 1283.132812 800.988281 1287.558594 797.320312 1291.222656 C 793.085938 1280.476562 789.101562 1274.53125 784.800781 1277.566406 "/>
<path fill-rule="nonzero" fill="rgb(8.627319%, 20.783997%, 35.68573%)" fill-opacity="1" d="M 437.136719 1694.585938 C 424.285156 1702.363281 418.46875 1722.917969 420.78125 1738.859375 C 426.082031 1740.957031 432.898438 1741.191406 432.898438 1741.191406 C 429.832031 1720.570312 435.929688 1705.964844 440.667969 1698.167969 C 442.0625 1695.871094 439.433594 1693.195312 437.136719 1694.585938 "/>
<path fill-rule="nonzero" fill="rgb(8.627319%, 20.783997%, 35.68573%)" fill-opacity="1" d="M 892.671875 1698.425781 C 876.335938 1708.144531 875.429688 1732.527344 875.691406 1739.960938 C 881.378906 1740.527344 890.011719 1739.960938 890.011719 1739.960938 C 888.347656 1720.316406 892.449219 1707.777344 895.675781 1701.226562 C 896.609375 1699.328125 894.488281 1697.34375 892.671875 1698.425781 "/>
<path fill-rule="nonzero" fill="rgb(8.627319%, 20.783997%, 35.68573%)" fill-opacity="1" d="M 922.007812 1532.34375 C 915.191406 1534.78125 919.433594 1558.253906 928.621094 1556.417969 C 937.8125 1554.582031 927.152344 1530.507812 922.007812 1532.34375 "/>
<path fill-rule="nonzero" fill="rgb(8.627319%, 20.783997%, 35.68573%)" fill-opacity="1" d="M 930.644531 1500.738281 C 925.867188 1503.3125 930.460938 1519.664062 938.179688 1516.910156 C 945.894531 1514.152344 935.421875 1498.167969 930.644531 1500.738281 "/>
<path fill-rule="nonzero" fill="rgb(8.627319%, 20.783997%, 35.68573%)" fill-opacity="1" d="M 887.644531 1489.527344 C 883.363281 1491.976562 887.277344 1510.847656 895.730469 1507.722656 C 904.183594 1504.597656 892.789062 1486.589844 887.644531 1489.527344 "/>
<path fill-rule="nonzero" fill="rgb(100%, 100%, 100%)" fill-opacity="1" d="M 544.144531 1389.574219 C 545.855469 1331.007812 533.886719 1278.082031 483.011719 1283.382812 C 382.117188 1297.660156 488.570312 1516.117188 502.675781 1543.050781 C 646.320312 1454.128906 687.789062 1396.84375 652.734375 1348.105469 C 621.039062 1307.699219 570.691406 1341.917969 544.144531 1389.574219 "/>
<path fill-rule="nonzero" fill="rgb(8.627319%, 20.783997%, 35.68573%)" fill-opacity="1" d="M 1069.03125 621.859375 C 1064.171875 633.175781 1055.265625 646.859375 1038.601562 663.160156 C 1037.40625 664.332031 1038.671875 666.304688 1040.230469 665.703125 C 1054.761719 660.101562 1068.175781 645.410156 1068.175781 645.410156 C 1071.496094 632.136719 1069.03125 621.859375 1069.03125 621.859375 "/>
<path fill-rule="nonzero" fill="rgb(8.627319%, 20.783997%, 35.68573%)" fill-opacity="1" d="M 715.929688 180.820312 C 707.082031 184.113281 691.851562 199.507812 691.851562 199.507812 C 696.683594 182.988281 704.847656 177.253906 704.847656 177.253906 C 708.707031 176.835938 714.097656 179.09375 715.929688 180.820312 "/>
<path fill-rule="nonzero" fill="rgb(8.627319%, 20.783997%, 35.68573%)" fill-opacity="1" d="M 710.273438 245.738281 C 720.410156 220.617188 728.90625 191.976562 756.757812 194.742188 C 777.894531 197.703125 782.632812 217.65625 782.632812 217.65625 C 773.941406 209.359375 760.0625 195.789062 742.535156 204.222656 C 736.609375 224.570312 733.375 255.792969 733.375 255.792969 C 722.550781 252.804688 710.273438 245.738281 710.273438 245.738281 "/>
<path fill-rule="nonzero" fill="rgb(100%, 100%, 100%)" fill-opacity="1" d="M 833.425781 215.378906 C 852.242188 206.15625 875.164062 211.617188 870.867188 224.203125 C 864.738281 240.066406 840.023438 218.113281 833.425781 215.378906 "/>
<path fill-rule="nonzero" fill="rgb(100%, 100%, 100%)" fill-opacity="1" d="M 844.507812 274.597656 C 859.640625 279.589844 875.25 295.511719 864.957031 303.421875 C 854.445312 310.40625 843.933594 293.4375 844.507812 274.597656 "/>
<path fill-rule="nonzero" fill="rgb(100%, 100%, 100%)" fill-opacity="1" d="M 779.136719 283.453125 C 797.8125 288.605469 813.492188 305.5 803.125 313.242188 C 792.46875 320.917969 782.632812 298.964844 779.136719 283.453125 "/>
</svg>
