<?xml version="1.0" encoding="UTF-8"?>
<svg xmlns="http://www.w3.org/2000/svg" xmlns:xlink="http://www.w3.org/1999/xlink" width="595.276pt" height="652.89pt" viewBox="0 0 595.276 652.89">
<defs>
<clipPath id="clip-0">
<path clip-rule="nonzero" d="M 0 0.339844 L 594.554688 0.339844 L 594.554688 652.4375 L 0 652.4375 Z M 0 0.339844 "/>
</clipPath>
<clipPath id="clip-1">
<path clip-rule="nonzero" d="M 75 136 L 96 136 L 96 156 L 75 156 Z M 75 136 "/>
</clipPath>
<clipPath id="clip-2">
<path clip-rule="nonzero" d="M 83.59375 137.679688 C 80.910156 140.761719 77.664062 145.734375 75.609375 150.878906 C 75.628906 153.605469 76.433594 156.207031 77.914062 158.304688 C 81.417969 159.160156 87.25 160.394531 92.792969 161.617188 C 95.425781 160.246094 97.710938 157.949219 99.140625 154.9375 C 102.371094 148.148438 100.046875 140.292969 93.949219 137.394531 C 92.417969 136.664062 90.792969 136.320312 89.171875 136.320312 C 87.261719 136.320312 85.351562 136.796875 83.59375 137.679688 "/>
</clipPath>
<clipPath id="clip-3">
<path clip-rule="nonzero" d="M 122 144 L 149 144 L 149 169 L 122 169 Z M 122 144 "/>
</clipPath>
<clipPath id="clip-4">
<path clip-rule="nonzero" d="M 124.621094 153.738281 C 120.613281 162.171875 124.058594 172.191406 132.316406 176.117188 C 140.578125 180.046875 150.523438 176.394531 154.535156 167.960938 C 158.542969 159.53125 155.097656 149.511719 146.835938 145.585938 C 144.582031 144.511719 142.203125 144.007812 139.855469 144.007812 C 133.59375 144.007812 127.539062 147.609375 124.621094 153.738281 "/>
</clipPath>
</defs>

<path fill-rule="nonzero" fill="rgb(80.392456%, 44.7052%, 61.177063%)" fill-opacity="1" d="M 79.535156 55.84375 C 77.074219 94.628906 91.941406 120.515625 114.503906 124.277344 C 137.0625 128.035156 157.367188 118.261719 157.367188 118.261719 C 157.367188 82.164062 134.054688 47.570312 79.535156 55.84375 "/>
<path fill-rule="nonzero" fill="rgb(8.627319%, 20.783997%, 35.293579%)" fill-opacity="1" d="M 141.570312 112.460938 C 125.695312 103.703125 105.40625 107.71875 93.644531 112.121094 C 97.335938 117.003906 105.195312 122.644531 112.769531 123.929688 Z M 141.570312 112.460938 "/>
<path fill-rule="nonzero" fill="rgb(80.392456%, 44.7052%, 61.177063%)" fill-opacity="1" d="M 128.792969 348.90625 C 144.851562 378.960938 179.828125 432.632812 180.300781 500.773438 C 180.304688 501.539062 179.703125 502.191406 178.941406 502.238281 C 170.273438 502.796875 167.804688 505.3125 167.804688 509.878906 C 167.804688 513.292969 169.871094 519.183594 182.1875 519.183594 C 198.167969 519.183594 201.363281 504.800781 203.617188 494.085938 C 205.875 483.367188 213.207031 415.121094 213.207031 415.121094 L 210.105469 390.585938 Z M 128.792969 348.90625 "/>
<path fill-rule="nonzero" fill="rgb(80.392456%, 44.7052%, 61.177063%)" fill-opacity="1" d="M 323.964844 379.660156 C 321.527344 387.152344 319.15625 393.503906 318.988281 399.683594 C 321.53125 413.457031 332.644531 426.335938 353.929688 444.167969 C 382.128906 467.011719 356.75 492.957031 348.289062 493.238281 C 341.238281 494.367188 329.957031 492.957031 329.957031 504.519531 C 329.113281 512.699219 342.085938 512.699219 347.726562 512.699219 C 364.082031 512.699219 398.488281 495.777344 400.460938 462.5 C 401.816406 439.621094 396.421875 427.585938 398.476562 409.773438 C 398.558594 402.855469 393.742188 392.367188 399.089844 380.324219 C 419.109375 353.816406 386.359375 349.328125 386.359375 349.328125 Z M 323.964844 379.660156 "/>
<path fill-rule="nonzero" fill="rgb(8.627319%, 20.783997%, 35.293579%)" fill-opacity="1" d="M 175.394531 372.976562 L 145.867188 368.308594 C 157.4375 390.769531 181.191406 415.132812 211.746094 428.476562 C 212.628906 420.5 213.207031 415.121094 213.207031 415.121094 L 210.105469 390.585938 Z M 175.394531 372.976562 "/>
<path fill-rule="nonzero" fill="rgb(8.627319%, 20.783997%, 35.293579%)" fill-opacity="1" d="M 409.929688 376.269531 L 395.007812 364.546875 L 333.945312 373.117188 L 320.933594 379.023438 C 318.496094 386.515625 317.804688 393.199219 319 399.683594 C 329.402344 402.140625 360.628906 408.75 398.5 409.582031 C 399.449219 401.53125 401.925781 392.292969 407.230469 380.339844 C 408.300781 378.921875 409.191406 377.566406 409.929688 376.269531 "/>
<path fill-rule="nonzero" fill="rgb(94.509888%, 60.392761%, 76.078796%)" fill-opacity="1" d="M 471.808594 289.910156 C 497.753906 296.679688 522.007812 288.78125 534.699219 278.347656 C 525.390625 277.785156 509.882812 275.246094 509.882812 275.246094 C 576.621094 251.367188 584.144531 127.660156 513.828125 119.011719 C 518.71875 124.277344 525.863281 136.6875 526.613281 142.324219 C 513.828125 119.011719 462.691406 114.875 446.144531 155.484375 C 466.449219 148.339844 491.644531 145.710938 505.933594 176.167969 C 520.222656 206.625 505.933594 262.273438 440.507812 264.152344 C 401.777344 248.359375 379.96875 240.464844 264.53125 252.121094 C 225.050781 256.257812 222.417969 238.960938 219.785156 232.566406 C 217.15625 226.175781 214.148438 211.511719 214.148438 211.511719 C 214.148438 211.511719 216.777344 197.597656 220.164062 186.320312 C 269.042969 179.175781 291.605469 127.660156 284.835938 91.941406 C 223.921875 79.15625 193.976562 106.574219 188.644531 122.757812 C 169.367188 106.960938 89.847656 102.675781 73.25 157.296875 C 68.394531 156.207031 62.574219 154.882812 56.863281 153.578125 C 53.554688 156.695312 41.25 165.648438 31.523438 173.558594 C 34.640625 190.839844 48.140625 208.988281 91.988281 223.429688 C 99.753906 242.703125 107.308594 263.320312 109.6875 271.621094 C 110.210938 273.429688 110.601562 277.078125 111.117188 281.96875 C 118.519531 290.738281 122.023438 315.855469 119.125 326.546875 C 121.121094 333.988281 123.808594 341.375 132.953125 355.691406 C 154.105469 384.605469 167.761719 395.851562 204.441406 406.828125 C 210.726562 425.945312 225.207031 460.9375 224.085938 496.53125 C 224.042969 497.871094 222.9375 498.921875 221.597656 498.949219 C 215.773438 499.066406 210.472656 500.050781 209.527344 508.304688 C 208.457031 517.675781 218.417969 519.28125 224.148438 519.816406 C 229.875 520.351562 240.050781 519.816406 246.742188 505.625 C 253.4375 491.4375 259.863281 463.589844 267.09375 402.277344 C 299.222656 394.515625 352.5 375.238281 399.089844 380.324219 C 462.097656 443.296875 510.191406 455.90625 532.710938 493.367188 C 534.671875 496.628906 533.09375 500.851562 529.492188 502.074219 C 524.703125 503.695312 522.621094 505.511719 523.230469 511.191406 C 523.890625 517.363281 535.1875 517.734375 544.277344 516.828125 C 552.464844 516.082031 554.871094 508.214844 554.71875 504.519531 C 553.421875 472.292969 515.753906 414.496094 507.058594 377.617188 C 497.753906 338.132812 486.472656 309.367188 471.808594 289.910156 "/>
<path fill-rule="nonzero" fill="rgb(8.627319%, 20.783997%, 35.293579%)" fill-opacity="1" d="M 56.863281 153.578125 C 50.503906 152.125 44.28125 150.695312 39.691406 149.636719 C 35.632812 148.699219 31.691406 151.523438 31.242188 155.660156 C 30.621094 161.378906 30.417969 167.414062 31.523438 173.558594 C 46.457031 173.730469 60.050781 163.179688 56.863281 153.578125 "/>
<path fill-rule="nonzero" fill="rgb(8.627319%, 20.783997%, 35.293579%)" fill-opacity="1" d="M 91.992188 223.429688 C 106.351562 227.015625 127.335938 228.996094 127.335938 228.996094 C 113.65625 234.214844 96.15625 233.949219 96.15625 233.949219 C 95.414062 231.957031 92.925781 226 91.992188 223.429688 "/>
<path fill-rule="nonzero" fill="rgb(100%, 100%, 100%)" fill-opacity="1" d="M 154.535156 167.964844 C 150.523438 176.394531 140.578125 180.046875 132.320312 176.117188 C 124.058594 172.191406 120.613281 162.171875 124.621094 153.742188 C 128.632812 145.308594 138.578125 141.65625 146.835938 145.585938 C 155.097656 149.511719 158.542969 159.53125 154.535156 167.964844 "/>
<path fill-rule="nonzero" fill="rgb(100%, 100%, 100%)" fill-opacity="1" d="M 93.949219 137.394531 C 90.617188 135.808594 86.851562 136.042969 83.59375 137.679688 C 80.910156 140.761719 77.667969 145.734375 75.609375 150.878906 C 75.625 153.605469 76.433594 156.207031 77.914062 158.304688 C 81.417969 159.160156 87.25 160.394531 92.792969 161.617188 C 95.425781 160.246094 97.710938 157.949219 99.140625 154.9375 C 102.371094 148.144531 100.046875 140.292969 93.949219 137.394531 "/>
<g clip-path="url(#clip-1)">
<g clip-path="url(#clip-2)">
<path fill-rule="nonzero" fill="rgb(8.627319%, 20.783997%, 35.293579%)" fill-opacity="1" d="M 90.722656 132.984375 C 95.683594 135.34375 97.4375 142.015625 94.644531 147.886719 C 91.851562 153.757812 85.570312 156.609375 80.613281 154.25 C 75.652344 151.894531 73.898438 145.222656 76.691406 139.347656 C 79.484375 133.476562 85.765625 130.625 90.722656 132.984375 "/>
</g>
</g>
<g clip-path="url(#clip-3)">
<g clip-path="url(#clip-4)">
<path fill-rule="nonzero" fill="rgb(8.627319%, 20.783997%, 35.293579%)" fill-opacity="1" d="M 147.023438 160.382812 C 143.796875 167.167969 135.683594 170.054688 128.898438 166.828125 C 122.113281 163.601562 119.230469 155.484375 122.457031 148.703125 C 125.679688 141.917969 133.796875 139.03125 140.582031 142.257812 C 147.363281 145.484375 150.25 153.597656 147.023438 160.382812 "/>
</g>
</g>
<path fill-rule="nonzero" fill="rgb(100%, 100%, 100%)" fill-opacity="1" d="M 200.984375 155.484375 C 205.121094 130.667969 224.167969 114.988281 254.378906 117.507812 C 249.117188 152.855469 217.15625 166.015625 200.984375 155.484375 "/>
<path fill-rule="nonzero" fill="rgb(8.627319%, 20.783997%, 35.293579%)" fill-opacity="1" d="M 197.414062 183.6875 C 206.816406 186.128906 220.164062 186.320312 220.164062 186.320312 C 219.304688 189.785156 218.414062 193.128906 217.476562 196.316406 C 217.476562 196.316406 205.875 193.460938 197.414062 183.6875 "/>
<path fill-rule="nonzero" fill="rgb(100%, 100%, 100%)" fill-opacity="1" d="M 163.289062 267.066406 C 140.167969 268.476562 141.570312 302.132812 141.570312 302.132812 C 134.054688 283.707031 120.988281 278.539062 111.121094 281.96875 C 112.457031 295.847656 114.03125 309.8125 119.121094 326.550781 C 129.128906 338.804688 145.777344 351.777344 172.316406 362.949219 C 187.542969 300.625 180.210938 267.066406 163.289062 267.066406 "/>
<path fill-rule="nonzero" fill="rgb(8.627319%, 20.783997%, 35.293579%)" fill-opacity="1" d="M 269.042969 357.59375 C 267.867188 384.214844 267.09375 402.277344 267.09375 402.277344 L 276.238281 399.933594 C 276.238281 399.933594 273.558594 371.128906 269.042969 357.59375 "/>
<path fill-rule="nonzero" fill="rgb(8.627319%, 20.783997%, 35.293579%)" fill-opacity="1" d="M 195.015625 382.269531 L 204.441406 406.828125 C 204.441406 406.828125 200.761719 405.992188 197.433594 404.632812 C 195.011719 399.058594 194.121094 386.992188 195.015625 382.269531 "/>
<path fill-rule="nonzero" fill="rgb(8.627319%, 20.783997%, 35.293579%)" fill-opacity="1" d="M 383.351562 284.457031 C 378.726562 283.605469 378.183594 289.066406 382.554688 289.628906 C 386.925781 290.191406 393.550781 286.738281 383.351562 284.457031 "/>
<path fill-rule="nonzero" fill="rgb(8.627319%, 20.783997%, 35.293579%)" fill-opacity="1" d="M 385.089844 301.191406 C 380.046875 299.675781 379.730469 304.714844 384.3125 305.84375 C 388.898438 306.972656 393.90625 304.292969 385.089844 301.191406 "/>
<path fill-rule="nonzero" fill="rgb(8.627319%, 20.783997%, 35.293579%)" fill-opacity="1" d="M 401.023438 291.882812 C 396.246094 291.40625 395.808594 296.539062 401.023438 296.820312 C 406.242188 297.101562 410.894531 292.871094 401.023438 291.882812 "/>
<path fill-rule="nonzero" fill="rgb(8.627319%, 20.783997%, 35.293579%)" fill-opacity="1" d="M 339.726562 499.246094 C 336.148438 502.273438 335.3125 508.375 335.273438 511.328125 C 337.285156 511.886719 339.347656 512.257812 339.347656 512.257812 C 339.480469 507.507812 340.492188 502.753906 341.148438 500.121094 C 341.351562 499.292969 340.378906 498.695312 339.726562 499.246094 "/>
<path fill-rule="nonzero" fill="rgb(8.627319%, 20.783997%, 35.293579%)" fill-opacity="1" d="M 530.753906 505.949219 C 527.3125 508.054688 526.417969 512.714844 526.421875 515.335938 C 527.558594 516.097656 530.175781 516.621094 530.175781 516.621094 C 530.015625 512.863281 531.507812 509.4375 532.351562 507.273438 C 532.734375 506.289062 531.65625 505.398438 530.753906 505.949219 "/>
<path fill-rule="nonzero" fill="rgb(8.627319%, 20.783997%, 35.293579%)" fill-opacity="1" d="M 535.445312 517.160156 C 535.316406 512.308594 536.855469 508.960938 538.632812 507.007812 C 539.296875 506.277344 540.511719 506.886719 540.347656 507.863281 C 539.847656 510.863281 539.386719 515.203125 539.351562 517.160156 C 537.007812 517.332031 535.445312 517.160156 535.445312 517.160156 "/>
<path fill-rule="nonzero" fill="rgb(8.627319%, 20.783997%, 35.293579%)" fill-opacity="1" d="M 175.550781 507.085938 C 172.449219 509.777344 171 516.332031 171 516.332031 C 171.851562 517.105469 172.929688 517.652344 174.195312 518.023438 C 174.453125 514.574219 175.855469 510.25 176.710938 507.863281 C 176.964844 507.160156 176.117188 506.597656 175.550781 507.085938 "/>
<path fill-rule="nonzero" fill="rgb(8.627319%, 20.783997%, 35.293579%)" fill-opacity="1" d="M 217.847656 504.832031 C 213.859375 508.265625 213.207031 516.722656 213.207031 516.722656 C 214.195312 517.464844 215.378906 518.046875 216.800781 518.433594 C 217.316406 512.648438 218.527344 508.398438 219.402344 505.953125 C 219.742188 505.003906 218.609375 504.175781 217.847656 504.832031 "/>
<path fill-rule="nonzero" fill="rgb(8.627319%, 20.783997%, 35.293579%)" fill-opacity="1" d="M 227.769531 506.535156 C 223.644531 510.292969 224.148438 519.816406 224.148438 519.816406 C 225.433594 519.941406 226.722656 519.988281 228.011719 519.945312 C 227.816406 515.433594 228.695312 510.207031 229.261719 507.402344 C 229.429688 506.550781 228.410156 505.949219 227.769531 506.535156 "/>
<path fill-rule="nonzero" fill="rgb(80.392456%, 44.7052%, 61.177063%)" fill-opacity="1" d="M 71.074219 208.503906 C 83.859375 202.675781 83.292969 176.402344 95.328125 173.558594 C 107.359375 170.714844 112.226562 194.027344 96.265625 206.625 C 81.980469 210.75 71.074219 208.503906 71.074219 208.503906 "/>
<path fill-rule="nonzero" fill="rgb(8.627319%, 20.783997%, 35.293579%)" fill-opacity="1" d="M 83.105469 208.878906 C 91.191406 201.546875 95.140625 189.136719 96.265625 184.816406 C 98.054688 191.21875 91.816406 206.277344 88.105469 208.410156 C 84.394531 210.542969 83.105469 208.878906 83.105469 208.878906 "/>
<path fill-rule="nonzero" fill="rgb(8.627319%, 20.783997%, 35.293579%)" fill-opacity="1" d="M 113.972656 190.71875 C 113.285156 190.078125 112.210938 190.113281 111.570312 190.796875 C 110.929688 191.484375 110.964844 192.558594 111.652344 193.199219 C 112.296875 193.800781 113.648438 195.09375 114.457031 196.09375 C 91.894531 214.691406 59.445312 205.828125 50.222656 202.753906 C 50.082031 202.707031 54.484375 206.175781 58.335938 208.425781 C 63.792969 209.65625 70.757812 210.75 78.351562 210.75 C 90.527344 210.75 104.164062 208.503906 115.820312 197.976562 C 116.617188 199.121094 117.472656 200.726562 118.105469 201.828125 C 118.417969 202.375 118.992188 202.683594 119.582031 202.683594 C 119.867188 202.683594 120.15625 202.609375 120.421875 202.457031 C 121.238281 201.992188 121.519531 200.953125 121.050781 200.140625 C 119.378906 197.21875 116.328125 192.921875 113.972656 190.71875 "/>
</svg>
