<?xml version="1.0" encoding="UTF-8"?>
<svg xmlns="http://www.w3.org/2000/svg" xmlns:xlink="http://www.w3.org/1999/xlink" width="937.441pt" height="1204.8pt" viewBox="0 0 937.441 1204.8">
<defs>
<clipPath id="clip-0">
<path clip-rule="nonzero" d="M 0 0.257812 L 936.882812 0.257812 L 936.882812 1204.339844 L 0 1204.339844 Z M 0 0.257812 "/>
</clipPath>
</defs>

<path fill-rule="nonzero" fill="rgb(100%, 100%, 100%)" fill-opacity="1" d="M 137.011719 657.132812 C 131.207031 652.335938 121.863281 641.816406 121.46875 641.371094 L 129.949219 633.855469 C 130.039062 633.957031 139.101562 644.160156 144.226562 648.394531 Z M 137.011719 657.132812 "/>
<path fill-rule="nonzero" fill="rgb(100%, 100%, 100%)" fill-opacity="1" d="M 140.183594 610.550781 C 144.28125 626.925781 137.601562 642.699219 125.269531 645.785156 C 112.9375 648.867188 99.621094 638.09375 95.523438 621.71875 C 91.429688 605.34375 98.105469 589.570312 110.4375 586.484375 C 122.769531 583.402344 136.089844 594.175781 140.183594 610.550781 "/>
<path fill-rule="nonzero" fill="rgb(10.757446%, 20.999146%, 35.694885%)" fill-opacity="1" d="M 108.683594 595.03125 C 108.929688 594.117188 107.769531 593.476562 107.128906 594.171875 C 102.097656 599.644531 99.773438 610.160156 102.277344 620.695312 C 104.753906 631.109375 112.152344 640.09375 123.695312 639.039062 C 124.6875 638.949219 124.804688 637.550781 123.851562 637.257812 C 116.335938 634.941406 112.140625 629.480469 109.273438 622.265625 C 106.378906 614.972656 106.328125 603.761719 108.683594 595.03125 "/>
<path fill-rule="nonzero" fill="rgb(10.757446%, 20.999146%, 35.694885%)" fill-opacity="1" d="M 250.476562 527.289062 C 229.890625 550.175781 212.53125 578.351562 199.261719 610.703125 C 186.90625 641.527344 175.761719 650.636719 168.585938 652.855469 C 161.222656 655.128906 154.683594 651.332031 147.503906 646.523438 L 146.46875 645.832031 C 142.5625 643.234375 137.285156 644.296875 134.6875 648.207031 C 132.089844 652.117188 133.152344 657.390625 137.0625 659.988281 L 138.042969 660.644531 C 144.980469 665.292969 157.898438 673.945312 173.601562 669.09375 C 189.398438 664.214844 202.953125 647.183594 215.011719 617.09375 C 226.277344 589.636719 240.605469 565.425781 257.40625 545.242188 "/>
<path fill-rule="nonzero" fill="rgb(36.358643%, 68.888855%, 83.128357%)" fill-opacity="1" d="M 698.742188 825.023438 C 692.671875 822.992188 687.199219 819.027344 683.335938 813.320312 C 673.972656 799.5 677.585938 780.707031 691.402344 771.34375 C 740.726562 737.929688 774.109375 690.601562 790.632812 630.679688 C 805.96875 575.042969 805.621094 511.464844 789.621094 446.816406 C 771.566406 373.871094 734.667969 305.109375 685.726562 253.210938 C 633.726562 198.070312 571.570312 165.085938 505.980469 157.828125 C 489.386719 155.988281 477.425781 141.050781 479.261719 124.460938 C 481.097656 107.871094 496.039062 95.910156 512.628906 97.746094 C 592.667969 106.601562 667.730469 146.019531 729.703125 211.738281 C 785.667969 271.085938 827.785156 349.414062 848.296875 432.292969 C 866.785156 506.984375 866.996094 581.140625 848.90625 646.746094 C 828.742188 719.878906 786.003906 780.269531 725.308594 821.390625 C 717.195312 826.886719 707.367188 827.910156 698.742188 825.023438 "/>
<path fill-rule="nonzero" fill="rgb(36.358643%, 68.888855%, 83.128357%)" fill-opacity="1" d="M 536.105469 81.855469 C 534.175781 81.207031 532.863281 79.3125 533.03125 77.195312 C 533.230469 74.699219 535.414062 72.835938 537.910156 73.035156 C 544.617188 73.570312 559.113281 76.226562 566.566406 77.859375 C 569.011719 78.394531 570.5625 80.8125 570.023438 83.257812 C 569.488281 85.703125 567.074219 87.253906 564.625 86.71875 C 557.261719 85.105469 543.261719 82.558594 537.1875 82.074219 C 536.8125 82.042969 536.449219 81.96875 536.105469 81.855469 "/>
<path fill-rule="nonzero" fill="rgb(36.358643%, 68.888855%, 83.128357%)" fill-opacity="1" d="M 544.320312 62.0625 C 542.464844 61.441406 541.15625 59.652344 541.230469 57.597656 C 541.324219 55.09375 543.429688 53.140625 545.929688 53.234375 C 551.722656 53.449219 557.976562 54.351562 563.542969 55.773438 C 565.96875 56.390625 567.433594 58.863281 566.8125 61.289062 C 566.191406 63.714844 563.722656 65.179688 561.296875 64.558594 C 556.339844 63.289062 550.761719 62.484375 545.597656 62.292969 C 545.152344 62.277344 544.722656 62.199219 544.320312 62.0625 "/>
<path fill-rule="nonzero" fill="rgb(36.358643%, 68.888855%, 83.128357%)" fill-opacity="1" d="M 450.410156 166.1875 C 449.789062 165.980469 449.203125 165.632812 448.703125 165.148438 C 439 155.777344 435.839844 140.4375 440.648438 126.074219 C 441.445312 123.699219 444.011719 122.417969 446.386719 123.210938 C 448.761719 124.007812 450.042969 126.574219 449.246094 128.949219 C 445.539062 140.019531 447.800781 151.667969 455.003906 158.628906 C 456.804688 160.367188 456.851562 163.238281 455.113281 165.039062 C 453.859375 166.335938 452.015625 166.726562 450.410156 166.1875 "/>
<path fill-rule="nonzero" fill="rgb(36.358643%, 68.888855%, 83.128357%)" fill-opacity="1" d="M 428.21875 177.488281 C 427.839844 177.363281 427.472656 177.183594 427.128906 176.953125 C 415.289062 169 411.820312 152.535156 415.402344 141.839844 C 416.199219 139.464844 418.765625 138.1875 421.140625 138.980469 C 423.515625 139.773438 424.796875 142.34375 424 144.71875 C 421.800781 151.296875 423.417969 163.539062 432.183594 169.425781 C 434.261719 170.820312 434.816406 173.636719 433.417969 175.714844 C 432.257812 177.449219 430.105469 178.121094 428.21875 177.488281 "/>
<path fill-rule="nonzero" fill="rgb(10.757446%, 20.999146%, 35.694885%)" fill-opacity="1" d="M 763.847656 790.433594 C 758.175781 785.023438 745.476562 774.933594 720.332031 763.125 L 740.9375 810.058594 C 748.933594 803.871094 756.574219 797.324219 763.847656 790.433594 "/>
<path fill-rule="nonzero" fill="rgb(36.358643%, 68.888855%, 83.128357%)" fill-opacity="1" d="M 335.714844 300.160156 C 312.65625 241.011719 264.457031 188.679688 238.175781 193.21875 C 211.894531 197.753906 197.734375 325.398438 213.976562 353.695312 C 173.617188 420.191406 153.242188 495.277344 245.148438 542.238281 C 248.519531 583.371094 255.058594 606.515625 260.1875 616.800781 C 230.417969 665.886719 185.433594 777.5 303.371094 792.222656 C 328.117188 869.082031 400.234375 977.992188 427.871094 1029.152344 C 455.507812 1080.3125 453.1875 1109.0625 446.507812 1121.429688 C 439.824219 1133.796875 424.414062 1126.730469 416.207031 1139.859375 C 408.003906 1152.984375 411.832031 1165.0625 430.464844 1170.664062 C 454.609375 1178.773438 546.601562 1165.734375 576.695312 1013.257812 C 599.925781 1010.242188 631.558594 993.527344 631.558594 993.527344 C 664.425781 1048.976562 671.222656 1091.257812 665.101562 1115.242188 C 658.976562 1139.222656 646.027344 1138.0625 642.777344 1149.675781 C 639.523438 1161.285156 641.984375 1174.808594 667.679688 1179.601562 C 693.378906 1184.394531 719.117188 1160.628906 738.027344 1111.71875 C 756.941406 1062.808594 791.378906 937.1875 744.332031 804.601562 C 694.222656 683.058594 582.910156 626.742188 515.433594 536.210938 C 580.058594 477.84375 543.800781 394.589844 523.28125 359.144531 C 533.109375 269.097656 520.433594 206.4375 493.597656 199.359375 C 466.761719 192.277344 425.957031 236.398438 393.496094 304.902344 C 369.128906 301.824219 335.714844 300.160156 335.714844 300.160156 "/>
<path fill-rule="nonzero" fill="rgb(100%, 100%, 100%)" fill-opacity="1" d="M 253.238281 251.59375 C 249.027344 267.964844 246.113281 312.707031 250.277344 330.609375 C 255.433594 332.335938 291 316.570312 291.621094 311.433594 C 288.25 297.777344 262.789062 256.554688 253.238281 251.59375 "/>
<path fill-rule="nonzero" fill="rgb(100%, 100%, 100%)" fill-opacity="1" d="M 231.171875 431.308594 C 230.417969 390.5625 288.496094 371.34375 295.273438 430.757812 C 282.148438 469.964844 234.308594 458.605469 231.171875 431.308594 "/>
<path fill-rule="nonzero" fill="rgb(100%, 100%, 100%)" fill-opacity="1" d="M 371.289062 427.503906 C 365.925781 373.984375 440.203125 359.480469 447.230469 419.40625 C 437.539062 453.414062 388.917969 457.03125 371.289062 427.503906 "/>
<path fill-rule="nonzero" fill="rgb(10.757446%, 20.999146%, 35.694885%)" fill-opacity="1" d="M 271.8125 426.8125 C 273.132812 437.480469 267.246094 446.992188 258.667969 448.054688 C 250.085938 449.117188 242.058594 441.332031 240.738281 430.660156 C 239.417969 419.988281 245.300781 410.476562 253.882812 409.414062 C 262.460938 408.351562 270.488281 416.140625 271.8125 426.8125 "/>
<path fill-rule="nonzero" fill="rgb(10.757446%, 20.999146%, 35.694885%)" fill-opacity="1" d="M 416.582031 416.664062 C 418.003906 428.171875 410.988281 438.515625 400.902344 439.765625 C 390.820312 441.011719 381.488281 432.695312 380.0625 421.1875 C 378.636719 409.679688 385.65625 399.335938 395.742188 398.089844 C 405.824219 396.839844 415.15625 405.15625 416.582031 416.664062 "/>
<path fill-rule="nonzero" fill="rgb(10.757446%, 20.999146%, 35.694885%)" fill-opacity="1" d="M 312.523438 441.1875 C 321.28125 434.976562 339.441406 435.386719 344.644531 437.550781 C 340.820312 448.96875 331.097656 457.136719 331.097656 457.136719 C 331.097656 457.136719 312.640625 449.058594 312.523438 441.1875 "/>
<path fill-rule="nonzero" fill="rgb(10.757446%, 20.999146%, 35.694885%)" fill-opacity="1" d="M 336.117188 475.152344 C 332.339844 470.121094 328.507812 460.082031 327.199219 451.804688 L 333.171875 450.863281 C 334.441406 458.914062 338.199219 467.855469 340.953125 471.523438 Z M 336.117188 475.152344 "/>
<path fill-rule="nonzero" fill="rgb(10.757446%, 20.999146%, 35.694885%)" fill-opacity="1" d="M 364.359375 453.570312 C 362.554688 450.425781 347.125 465.261719 340.445312 468.421875 C 333.769531 471.582031 321.785156 468.84375 317.410156 467.21875 C 313.761719 465.945312 313.503906 468.925781 317.167969 470.3125 C 319.972656 470.933594 325.132812 494.882812 342.320312 492.859375 C 357.980469 491.117188 364.59375 458.566406 364.359375 453.570312 "/>
<path fill-rule="nonzero" fill="rgb(97.041321%, 60.264587%, 78.22876%)" fill-opacity="1" d="M 330.984375 480.875 C 333.914062 489.199219 345.457031 495.179688 351.761719 479.511719 C 339.371094 476.242188 330.984375 480.875 330.984375 480.875 "/>
<path fill-rule="nonzero" fill="rgb(10.757446%, 20.999146%, 35.694885%)" fill-opacity="1" d="M 515.433594 536.210938 C 485.894531 556.800781 444 560.554688 444 560.554688 C 444 560.554688 494.660156 584.722656 536.515625 562.019531 C 529.132812 553.683594 522.070312 545.117188 515.433594 536.210938 "/>
<path fill-rule="nonzero" fill="rgb(100%, 100%, 100%)" fill-opacity="1" d="M 386.960938 692.863281 C 383.492188 698.691406 379.722656 704.742188 375.640625 711.011719 C 346.148438 691.335938 327.683594 672.5625 316.660156 655.734375 C 316.660156 655.734375 335.085938 651.960938 341.375 648.351562 C 348.308594 653.921875 372.320312 676.355469 378.230469 682.40625 C 384.140625 688.460938 386.960938 692.863281 386.960938 692.863281 "/>
<path fill-rule="nonzero" fill="rgb(100%, 100%, 100%)" fill-opacity="1" d="M 414.484375 634.625 C 424.6875 602.121094 418.945312 583.28125 403.074219 577.964844 C 377.347656 569.351562 357.015625 612.074219 357.015625 612.074219 C 343.625 586.636719 328.464844 573.941406 314.363281 583.507812 C 309.957031 586.496094 304.960938 593.847656 303.089844 604.484375 C 303.089844 604.484375 342.21875 605.308594 347.5625 618.421875 C 359.621094 616.257812 414.484375 634.625 414.484375 634.625 "/>
<path fill-rule="nonzero" fill="rgb(10.757446%, 20.999146%, 35.694885%)" fill-opacity="1" d="M 513.15625 603.707031 C 508.851562 605.625 518.28125 617.804688 521.898438 615.527344 C 525.519531 613.246094 517.632812 601.714844 513.15625 603.707031 "/>
<path fill-rule="nonzero" fill="rgb(10.757446%, 20.999146%, 35.694885%)" fill-opacity="1" d="M 487.742188 601.867188 C 484.5 603.957031 490.203125 611.582031 493.917969 609.964844 C 497.632812 608.355469 490.980469 599.777344 487.742188 601.867188 "/>
<path fill-rule="nonzero" fill="rgb(10.757446%, 20.999146%, 35.694885%)" fill-opacity="1" d="M 508.941406 624.839844 C 505.917969 626.925781 511.054688 637.292969 515.703125 635.355469 C 520.355469 633.421875 513.894531 621.417969 508.941406 624.839844 "/>
<path fill-rule="nonzero" fill="rgb(10.757446%, 20.999146%, 35.694885%)" fill-opacity="1" d="M 527.835938 662.277344 C 526.347656 660.71875 523.554688 661.796875 520.3125 664.835938 C 517.070312 667.878906 483.402344 699.945312 483.402344 699.945312 C 457.375 670.753906 434.65625 643.78125 423.148438 635.484375 C 411.640625 627.1875 392.699219 624.019531 381.277344 621.148438 C 369.859375 618.277344 355.398438 611.214844 347.488281 614.917969 C 339.582031 618.621094 331.542969 641.25 337.910156 649.730469 C 344.277344 658.210938 365.105469 674.203125 378.230469 682.40625 C 386.476562 711.835938 425.035156 795.808594 469.949219 811.480469 C 514.863281 827.152344 571.203125 771.722656 574.726562 768.773438 C 578.253906 765.828125 576.449219 762.683594 572.925781 764.679688 C 569.398438 766.675781 511.429688 814.417969 476.71875 803.585938 C 442.011719 792.753906 410.144531 739.761719 391.640625 694.515625 C 386.710938 678.894531 380.144531 674.792969 372.347656 668.691406 C 364.546875 662.589844 347.613281 653.933594 344.195312 646.121094 C 340.78125 638.308594 345.703125 621.832031 352.273438 620.222656 C 358.847656 618.613281 372.324219 626.085938 381.554688 628.859375 C 390.785156 631.632812 410.011719 633.941406 419.523438 640.621094 C 429.035156 647.296875 481.984375 708.199219 486.835938 712.679688 C 491.683594 717.160156 494.355469 712.976562 492.929688 710.59375 C 491.503906 708.214844 487.699219 704.398438 487.699219 704.398438 C 513.054688 681.773438 522.972656 670.171875 525.355469 667.796875 C 527.738281 665.417969 528.914062 663.167969 527.835938 662.277344 "/>
<path fill-rule="nonzero" fill="rgb(10.757446%, 20.999146%, 35.694885%)" fill-opacity="1" d="M 345.160156 625.035156 C 357.21875 624.417969 364.640625 628.171875 368.128906 630.398438 C 371.617188 632.625 370.3125 635.890625 366.917969 634.015625 C 361.910156 631.582031 353.027344 627.777344 343.757812 629.222656 C 338.492188 630.015625 345.160156 625.035156 345.160156 625.035156 "/>
<path fill-rule="nonzero" fill="rgb(10.757446%, 20.999146%, 35.694885%)" fill-opacity="1" d="M 343.175781 637.285156 C 352.820312 638.820312 361.449219 642.765625 363.730469 644.164062 C 366.015625 645.566406 365.945312 648.925781 362.519531 647.78125 C 359.09375 646.632812 348.445312 642.410156 343.296875 641.347656 C 340.566406 641.914062 343.175781 637.285156 343.175781 637.285156 "/>
<path fill-rule="nonzero" fill="rgb(10.757446%, 20.999146%, 35.694885%)" fill-opacity="1" d="M 257.414062 610.25 C 264.941406 603.417969 274.554688 598.859375 283.125 597.917969 C 291.695312 596.976562 304.570312 602.769531 311.167969 603.921875 C 317.769531 605.070312 340.933594 606.6875 350.242188 615.519531 C 347.515625 619.265625 344.5 620.371094 344.5 620.371094 C 335.910156 613.472656 321.847656 613.121094 313.425781 611.085938 C 294.597656 607.898438 285.09375 594.558594 260.1875 616.800781 C 259.042969 614.515625 257.976562 612.265625 257.414062 610.25 "/>
<path fill-rule="nonzero" fill="rgb(10.757446%, 20.999146%, 35.694885%)" fill-opacity="1" d="M 341.3125 627.046875 C 338.945312 622.742188 330.519531 620.671875 326.222656 619.539062 C 324.785156 619.160156 323.691406 621.296875 325.03125 621.945312 C 329.96875 624.328125 336.6875 628.644531 339.910156 634.074219 Z M 341.3125 627.046875 "/>
<path fill-rule="nonzero" fill="rgb(10.757446%, 20.999146%, 35.694885%)" fill-opacity="1" d="M 313.082031 631.265625 C 321.210938 633.984375 333.019531 639.175781 338.410156 647.773438 C 338.796875 648.449219 338.566406 649.3125 337.910156 649.730469 L 333.261719 652.683594 C 332.585938 653.109375 331.707031 652.917969 331.253906 652.257812 C 325.273438 642.082031 316.140625 637.902344 311.5625 633.726562 C 310.363281 632.632812 311.5625 630.699219 313.082031 631.265625 "/>
<path fill-rule="nonzero" fill="rgb(10.757446%, 20.999146%, 35.694885%)" fill-opacity="1" d="M 340.78125 643.785156 C 331.253906 652.257812 314.398438 658.761719 282.488281 648.503906 C 280.011719 647.671875 279.503906 649.195312 283.878906 651.929688 C 288.253906 654.664062 314.808594 668.273438 345.183594 649.628906 C 344.597656 645.6875 340.78125 643.785156 340.78125 643.785156 "/>
<path fill-rule="nonzero" fill="rgb(10.757446%, 20.999146%, 35.694885%)" fill-opacity="1" d="M 302.714844 657.390625 C 300.164062 670.929688 291.308594 730.667969 291.003906 734.957031 C 290.699219 739.246094 289.914062 745.171875 291.625 745.746094 C 293.339844 746.320312 295.148438 739.519531 296.160156 734.988281 C 297.167969 730.457031 310.089844 657.53125 310.089844 657.53125 Z M 302.714844 657.390625 "/>
<path fill-rule="nonzero" fill="rgb(100%, 100%, 100%)" fill-opacity="1" d="M 424.699219 876.800781 C 421.175781 879.75 426.492188 890.417969 431.253906 888.519531 C 436.015625 886.625 428.226562 873.855469 424.699219 876.800781 "/>
<path fill-rule="nonzero" fill="rgb(100%, 100%, 100%)" fill-opacity="1" d="M 415.601562 902.644531 C 410.90625 904.15625 419.898438 917.101562 423.132812 915.328125 C 426.367188 913.554688 420.433594 901.089844 415.601562 902.644531 "/>
<path fill-rule="nonzero" fill="rgb(100%, 100%, 100%)" fill-opacity="1" d="M 439.511719 907.476562 C 435.414062 909.28125 443.109375 922.332031 447.109375 920.816406 C 451.113281 919.296875 443.609375 905.671875 439.511719 907.476562 "/>
<path fill-rule="nonzero" fill="rgb(10.757446%, 20.999146%, 35.694885%)" fill-opacity="1" d="M 691.46875 898.023438 C 686.992188 899.0625 688.878906 911.441406 693.734375 911.164062 C 698.59375 910.882812 695.945312 896.980469 691.46875 898.023438 "/>
<path fill-rule="nonzero" fill="rgb(10.757446%, 20.999146%, 35.694885%)" fill-opacity="1" d="M 678.300781 920.28125 C 674.871094 921.992188 678.378906 932.375 682 931.046875 C 685.621094 929.714844 681.730469 918.574219 678.300781 920.28125 "/>
<path fill-rule="nonzero" fill="rgb(10.757446%, 20.999146%, 35.694885%)" fill-opacity="1" d="M 697.582031 926.222656 C 693.238281 926.871094 696.390625 938.328125 701.566406 938.035156 C 706.746094 937.742188 701.929688 925.574219 697.582031 926.222656 "/>
<path fill-rule="nonzero" fill="rgb(10.757446%, 20.999146%, 35.694885%)" fill-opacity="1" d="M 570.046875 925.949219 C 572.902344 928.808594 620.058594 978.566406 631.558594 993.527344 C 628.410156 995.570312 623.914062 997.304688 623.914062 997.304688 C 596.933594 970.824219 569.183594 932.324219 570.046875 925.949219 "/>
<path fill-rule="nonzero" fill="rgb(10.757446%, 20.999146%, 35.694885%)" fill-opacity="1" d="M 470.269531 1004.296875 C 476.609375 1016.710938 519.210938 1039.855469 569.535156 1043.164062 C 572.191406 1033.839844 574.59375 1023.898438 576.695312 1013.257812 C 545.671875 1022.46875 495.515625 1013.597656 470.269531 1004.296875 "/>
<path fill-rule="nonzero" fill="rgb(10.757446%, 20.999146%, 35.694885%)" fill-opacity="1" d="M 437.582031 1147.910156 C 438.6875 1146.28125 436.832031 1145.371094 434.984375 1146.039062 C 425.707031 1149.398438 419.691406 1156.769531 416.382812 1162.808594 C 417.886719 1164.601562 420.683594 1166.636719 423.5625 1167.964844 C 428.800781 1159.824219 434.855469 1151.933594 437.582031 1147.910156 "/>
<path fill-rule="nonzero" fill="rgb(10.757446%, 20.999146%, 35.694885%)" fill-opacity="1" d="M 664.496094 1149.632812 C 659.425781 1154.753906 654.011719 1165.007812 651.164062 1173.746094 C 653.179688 1175.144531 656.296875 1176.5625 659.234375 1177.457031 C 662.222656 1167.929688 665.714844 1157.746094 667.816406 1151.734375 C 668.515625 1149.722656 665.996094 1148.117188 664.496094 1149.632812 "/>
<path fill-rule="nonzero" fill="rgb(10.757446%, 20.999146%, 35.694885%)" fill-opacity="1" d="M 688.304688 1152.070312 C 681.753906 1158.675781 675.769531 1170.042969 673.515625 1180.179688 C 676.996094 1180.339844 681.15625 1179.765625 684.289062 1178.730469 C 685.707031 1170.023438 688.726562 1160.011719 691.105469 1153.855469 C 691.773438 1152.132812 689.605469 1150.757812 688.304688 1152.070312 "/>
<path fill-rule="nonzero" fill="rgb(100%, 100%, 100%)" fill-opacity="1" d="M 396.171875 476.738281 C 394.222656 476.085938 392.902344 474.160156 393.101562 472.027344 C 393.328125 469.53125 395.535156 467.695312 398.027344 467.925781 C 448.910156 472.582031 519.796875 491.449219 562.917969 511.804688 C 565.183594 512.875 566.152344 515.574219 565.082031 517.839844 C 564.015625 520.101562 561.308594 521.074219 559.050781 520.003906 C 517.449219 500.367188 446.355469 481.457031 397.199219 476.953125 C 396.84375 476.921875 396.5 476.847656 396.171875 476.738281 "/>
<path fill-rule="nonzero" fill="rgb(100%, 100%, 100%)" fill-opacity="1" d="M 144.542969 494.722656 C 143.113281 494.242188 141.953125 493.0625 141.574219 491.488281 C 140.984375 489.054688 142.480469 486.605469 144.914062 486.015625 C 183.300781 476.71875 256.488281 469.5625 285.203125 470.796875 C 287.703125 470.902344 289.644531 473.019531 289.539062 475.519531 C 289.429688 478.023438 287.316406 479.964844 284.816406 479.855469 C 256.660156 478.644531 184.792969 485.6875 147.046875 494.828125 C 146.1875 495.035156 145.324219 494.984375 144.542969 494.722656 "/>
<path fill-rule="nonzero" fill="rgb(99.842834%, 97.900391%, 99.052429%)" fill-opacity="1" d="M 163.867188 523.617188 C 162.457031 523.148438 161.308594 521.992188 160.910156 520.445312 C 160.289062 518.019531 161.75 515.546875 164.175781 514.925781 C 204.3125 504.625 239.023438 498.023438 287.390625 489.125 C 289.851562 488.671875 292.214844 490.300781 292.667969 492.761719 C 293.121094 495.226562 291.492188 497.585938 289.03125 498.042969 C 240.847656 506.902344 206.285156 513.480469 166.429688 523.707031 C 165.550781 523.933594 164.667969 523.886719 163.867188 523.617188 "/>
<path fill-rule="nonzero" fill="rgb(100%, 100%, 100%)" fill-opacity="1" d="M 318.503906 778.753906 C 317.679688 778.753906 316.84375 778.574219 316.050781 778.191406 C 283.269531 762.414062 259.550781 754.070312 245.554688 753.386719 C 235.617188 752.890625 232.980469 756.152344 229.929688 759.917969 L 229.480469 760.472656 C 227.503906 762.894531 223.933594 763.257812 221.511719 761.28125 C 219.085938 759.300781 218.722656 755.730469 220.703125 753.308594 L 221.125 752.785156 C 231.601562 739.851562 246.339844 732.066406 320.964844 767.980469 C 323.785156 769.335938 324.96875 772.722656 323.613281 775.542969 C 322.636719 777.570312 320.613281 778.753906 318.503906 778.753906 "/>
<path fill-rule="nonzero" fill="rgb(100%, 100%, 100%)" fill-opacity="1" d="M 273.835938 880.132812 C 273.074219 880.132812 272.296875 879.980469 271.558594 879.652344 C 232.984375 862.691406 209.042969 847.410156 198.367188 832.933594 C 188.171875 819.113281 191.773438 808.355469 193.925781 801.925781 C 194.285156 800.855469 205.105469 804.226562 204.671875 805.523438 C 202.761719 811.230469 200.789062 817.128906 207.484375 826.207031 C 216.824219 838.871094 239.917969 853.363281 276.117188 869.28125 C 278.984375 870.539062 280.285156 873.882812 279.023438 876.746094 C 278.089844 878.871094 276.011719 880.132812 273.835938 880.132812 "/>
<path fill-rule="nonzero" fill="rgb(10.757446%, 20.999146%, 35.694885%)" fill-opacity="1" d="M 210.09375 806.304688 C 208.289062 810.308594 203.113281 811.878906 198.53125 809.816406 C 193.945312 807.75 191.695312 802.832031 193.496094 798.828125 C 195.300781 794.824219 200.476562 793.253906 205.0625 795.320312 C 209.644531 797.382812 211.898438 802.304688 210.09375 806.304688 "/>
<path fill-rule="nonzero" fill="rgb(10.757446%, 20.999146%, 35.694885%)" fill-opacity="1" d="M 231.011719 764.09375 C 229.207031 768.097656 224.03125 769.667969 219.449219 767.605469 C 214.867188 765.539062 212.613281 760.621094 214.414062 756.617188 C 216.21875 752.613281 221.394531 751.042969 225.980469 753.109375 C 230.5625 755.171875 232.816406 760.09375 231.011719 764.09375 "/>
<path fill="none" stroke-width="8.504" stroke-linecap="round" stroke-linejoin="miter" stroke="rgb(100%, 100%, 100%)" stroke-opacity="1" stroke-miterlimit="10" d="M 0.000720042 0.000654543 C 6.305258 -8.449694 18.730632 -15.352245 29.05319 -18.545554 " transform="matrix(0.999404, 0, 0, -0.999404, 203.850843, 868.668623)"/>
<path fill="none" stroke-width="8.504" stroke-linecap="round" stroke-linejoin="miter" stroke="rgb(100%, 100%, 100%)" stroke-opacity="1" stroke-miterlimit="10" d="M -0.00167889 0.000335935 C 5.571955 -7.496319 17.055361 -13.703143 23.907101 -14.992974 " transform="matrix(0.999404, 0, 0, -0.999404, 194.474334, 889.211273)"/>
<path fill-rule="nonzero" fill="rgb(10.757446%, 20.999146%, 35.694885%)" fill-opacity="1" d="M 453.945312 797.597656 C 441.160156 810.160156 428.023438 819.351562 415.910156 825.257812 C 413.046875 826.652344 410.3125 827.832031 407.710938 828.816406 C 396.300781 833.136719 383.722656 827.59375 378.808594 816.425781 C 364.96875 784.984375 318.949219 763.496094 316.4375 762.34375 C 312.171875 760.386719 307.132812 762.253906 305.171875 766.519531 C 303.214844 770.78125 305.082031 775.828125 309.34375 777.789062 C 310.003906 778.09375 374.71875 808.921875 364.601562 841.199219 C 357.855469 857.332031 345.261719 867.289062 327.171875 870.796875 C 307.582031 874.589844 287.449219 869.972656 277.191406 866.878906 C 272.539062 865.480469 267.609375 868.261719 266.46875 873.066406 C 265.414062 877.496094 268.21875 881.941406 272.582031 883.246094 C 281.15625 885.804688 295.5625 889.210938 311.578125 889.210938 C 317.699219 889.210938 324.054688 888.714844 330.40625 887.484375 C 344.578125 884.738281 356.433594 878.710938 365.585938 869.726562 C 381.195312 853.8125 382.695312 854.511719 404.53125 847.65625 C 410.5625 846.070312 416.890625 843.691406 423.359375 840.535156 C 439.074219 832.875 454.800781 821.089844 469.046875 806.460938 Z M 453.945312 797.597656 "/>
<path fill-rule="nonzero" fill="rgb(10.757446%, 20.999146%, 35.694885%)" fill-opacity="1" d="M 514.878906 536.289062 C 527.769531 566.394531 528.074219 612.949219 515.871094 677.761719 L 536.308594 659.285156 C 545.914062 597.558594 543.101562 553.671875 527.667969 523.492188 "/>
<path fill-rule="nonzero" fill="rgb(100%, 100%, 100%)" fill-opacity="1" d="M 537.898438 548.515625 C 537.597656 548.414062 537.304688 548.28125 537.019531 548.113281 C 513.613281 534.226562 422.582031 504.125 393.492188 498.226562 C 391.039062 497.734375 389.449219 495.339844 389.949219 492.882812 C 390.445312 490.429688 392.839844 488.84375 395.292969 489.34375 C 425.636719 495.492188 517.101562 525.75 541.648438 540.316406 C 543.800781 541.59375 544.511719 544.375 543.234375 546.527344 C 542.125 548.398438 539.878906 549.179688 537.898438 548.515625 "/>
<path fill-rule="nonzero" fill="rgb(100%, 100%, 100%)" fill-opacity="1" d="M 190.550781 281.359375 C 190.550781 281.359375 226.730469 340.644531 238.933594 351.105469 C 288.191406 325.824219 353.144531 316.671875 434.222656 351.105469 C 452.53125 326.257812 481.300781 272.644531 481.300781 272.644531 C 430.734375 213.359375 290.371094 154.949219 190.550781 281.359375 "/>
<path fill-rule="nonzero" fill="rgb(100%, 100%, 100%)" fill-opacity="1" d="M 280.667969 273.792969 C 285.410156 272.886719 333.488281 268.71875 375.753906 271.070312 "/>
<path fill-rule="nonzero" fill="rgb(88.728333%, 36.04126%, 41.452026%)" fill-opacity="1" d="M 375.21875 253.988281 C 365.5 253.238281 355.027344 252.957031 344.675781 252.980469 L 343.261719 224.621094 C 332.039062 224.640625 320.710938 225.050781 309.28125 225.796875 L 310.699219 254.03125 C 294.546875 254.953125 282.042969 256.25 278.320312 256.953125 C 279.226562 266.742188 280.273438 279.273438 281.980469 290.539062 C 281.980469 290.539062 294.722656 289.398438 312.429688 288.503906 L 313.683594 313.519531 C 325.257812 313.160156 336.589844 313 347.667969 313.0625 L 346.390625 287.464844 C 356.011719 287.390625 365.734375 287.535156 374.808594 288.042969 C 375.378906 277.539062 375.703125 263.410156 375.21875 253.988281 "/>
</svg>
